<svg xmlns="http://www.w3.org/2000/svg" width="631" height="377" viewBox="0 0 631 377" fill="none"><path d="M276.18 368.36C377.90 368.36 460.36 285.90 460.36 184.18C460.36 82.46 377.90 0 276.18 0C174.46 0 92 82.46 92 184.18C92 285.90 174.46 368.36 276.18 368.36Z" fill="url(#paint0_linear_269_1169)"/><path d="M99.86 281.75H501.70C517.04 281.75 529.49 270.46 529.49 256.54V241.55C529.49 227.63 517.04 216.34 501.70 216.34H99.86C118.24 234.57 118.56 262.42 100.60 280.99L99.86 281.75Z" fill="#1D9BEF"/><path d="M105.49 223.83H307.70C321.63 223.83 332.92 235.12 332.92 249.04C332.92 262.96 321.63 274.25 307.70 274.25H105.48C114.92 258.79 114.90 239.25 105.49 223.83Z" fill="url(#paint1_linear_269_1169)"/><path d="M117.95 144.82C117.07 143.30 118.41 141.55 120.44 141.55H440.46C465.55 141.55 485.88 158.33 485.88 179.03C485.88 199.73 465.55 216.51 440.46 216.51H120.36C118.32 216.51 116.98 214.75 117.87 213.23C130.53 191.57 130.50 166.38 117.95 144.82Z" fill="#00B781"/><path d="M120.51 149.62H335.22C351.08 149.62 363.94 162.48 363.94 178.34V180.49C363.94 196.35 351.08 209.21 335.22 209.21H120.05C129.67 190.11 129.78 168.71 120.51 149.62Z" fill="url(#paint2_linear_269_1169)"/><path d="M507.42 138.22H300.90C282.58 138.22 267.74 122.21 267.74 102.46C267.74 82.72 282.58 66.71 300.90 66.71H507.42C491.63 86.53 491.02 115.61 505.95 136.19L507.42 138.22Z" fill="url(#paint3_linear_269_1169)"/><path d="M270.46 102.47C270.46 82.72 285.48 66.71 304 66.71H511.18C512.14 66.71 512.92 65.87 512.92 64.84C512.91 63.82 512.13 63 511.18 63H182.52C162.07 63 145.5 80.67 145.5 102.47C145.5 124.26 162.07 141.93 182.52 141.93H511.18C512.13 141.93 512.91 141.11 512.92 140.10C512.93 139.07 512.15 138.23 511.18 138.23H304C285.48 138.22 270.46 122.21 270.46 102.47Z" fill="#1D9BEF"/><path d="M238.86 180.94C238.86 176.79 244.10 173.44 250.56 173.44H276.32C271.42 173.44 267.44 175.98 267.44 179.13L267.57 259.48L253.34 249.15L238.83 259.48L238.86 180.94Z" fill="#A80311"/><path d="M0 281.62H597.09C615.63 281.62 630.66 296.65 630.66 315.19V343.43C630.66 361.97 615.63 377 597.09 377H0L0.32 376.68C25.86 350.09 25.72 308.04 0 281.62Z" fill="#023828"/><path d="M10.57 295.74H329.76C348.30 295.74 363.33 310.77 363.33 329.31C363.33 347.85 348.30 362.88 329.76 362.88H10.58C22.31 342.09 22.29 316.51 10.57 295.74Z" fill="url(#paint4_linear_269_1169)"/><path d="M105.5 47C108.54 47 111 44.54 111 41.5C111 38.46 108.54 36 105.5 36C102.46 36 100 38.46 100 41.5C100 44.54 102.46 47 105.5 47Z" stroke="#E1E4E5" stroke-width="3.31" stroke-linecap="round" stroke-linejoin="round"/><path d="M517.82 177.64C520.49 177.64 522.64 175.49 522.64 172.82C522.64 170.16 520.49 168 517.82 168C515.16 168 513 170.16 513 172.82C513 175.49 515.16 177.64 517.82 177.64Z" fill="#E1E4E5"/><path d="M448.43 30.61L433.83 36.31L434.76 20.67L449.35 14.97L448.43 30.61Z" stroke="#E1E4E5" stroke-width="4.21" stroke-linecap="round" stroke-linejoin="round"/><path d="M65.42 247.87C69.31 244.47 70.42 237.63 70.42 237.63C70.42 237.63 62.88 237.11 58.98 240.52C55.09 243.92 53.37 248.33 55.15 250.36C56.93 252.40 61.52 251.28 65.42 247.87ZM567.12 255.53C561.23 250.37 559.54 240.01 559.54 240.01C559.54 240.01 570.97 239.23 576.87 244.39C582.76 249.54 585.37 256.22 582.68 259.30C579.98 262.38 573.02 260.69 567.12 255.53Z" fill="#E1E4E5"/><path d="M25.81 178.15C21.97 181.85 21.85 187.95 25.55 191.79C29.24 195.63 35.34 195.75 39.18 192.06C43.02 188.37 43.14 182.26 39.45 178.42C35.76 174.58 29.65 174.46 25.81 178.15Z" fill="#E1E4E5"/><path d="M572.19 201.67C574.87 204.25 574.96 208.51 572.38 211.19C569.80 213.87 565.54 213.96 562.86 211.38C560.17 208.80 560.09 204.53 562.67 201.85C565.25 199.17 569.51 199.09 572.19 201.67Z" fill="#E1E4E5"/><path d="M61.21 116.42L51 106.21L61.21 96L71.42 106.21L61.21 116.42ZM550.21 112.42L560.42 102.21L550.21 92L540 102.21L550.21 112.42Z" stroke="#E1E4E5" stroke-width="5.42" stroke-linecap="round" stroke-linejoin="round"/><defs><linearGradient id="paint0_linear_269_1169" x1="511.5" y1="417.5" x2="229" y2="11.5" gradientUnits="userSpaceOnUse"><stop stop-color="#1D9BEF"/><stop offset="1" stop-color="#EEEEEE"/></linearGradient><linearGradient id="paint1_linear_269_1169" x1="214.35" y1="302.52" x2="214.69" y2="168.96" gradientUnits="userSpaceOnUse"><stop stop-color="#EFEFEF"/><stop offset="1" stop-color="#EEEEEE"/></linearGradient><linearGradient id="paint2_linear_269_1169" x1="236.80" y1="242.62" x2="237.25" y2="84.78" gradientUnits="userSpaceOnUse"><stop stop-color="#EFEFEF"/><stop offset="1" stop-color="#EFEFEF"/></linearGradient><linearGradient id="paint3_linear_269_1169" x1="382.47" y1="178.32" x2="383.13" y2="-11.11" gradientUnits="userSpaceOnUse"><stop stop-color="#EFEFEF"/><stop offset="1" stop-color="#EEEEEE"/></linearGradient><linearGradient id="paint4_linear_269_1169" x1="179.43" y1="400.53" x2="179.82" y2="222.67" gradientUnits="userSpaceOnUse"><stop offset="1" stop-color="#EEEEEE"/></linearGradient></defs></svg>