<svg width="631" height="377" viewBox="0 0 631 377" fill="none" xmlns="http://www.w3.org/2000/svg">
<path d="M276.178 368.356C377.897 368.356 460.356 285.897 460.356 184.178C460.356 82.4593 377.897 0 276.178 0C174.459 0 92 82.4593 92 184.178C92 285.897 174.459 368.356 276.178 368.356Z" fill="url(#paint0_linear_269_1169)"/>
<path d="M99.8638 281.751H501.697C517.045 281.751 529.486 270.462 529.486 256.539V241.548C529.486 227.625 517.045 216.336 501.697 216.336H99.8638C118.244 234.566 118.564 262.421 100.603 280.992L99.8638 281.751Z" fill="#1D9BEF"/>
<path d="M105.493 223.828H307.703C321.626 223.828 332.915 235.117 332.915 249.04C332.915 262.963 321.626 274.252 307.703 274.252H105.478C114.923 258.785 114.902 239.254 105.493 223.828Z" fill="url(#paint1_linear_269_1169)"/>
<path d="M117.954 144.817C117.071 143.303 118.409 141.553 120.444 141.553H440.465C465.548 141.553 485.879 158.331 485.879 179.035C485.879 199.733 465.548 216.511 440.465 216.511H120.361C118.316 216.511 116.978 214.75 117.867 213.232C130.534 191.568 130.503 166.382 117.954 144.817Z" fill="#00B781"/>
<path d="M120.506 149.619H335.223C351.083 149.619 363.942 162.478 363.942 178.337V180.491C363.942 196.35 351.083 209.209 335.223 209.209H120.051C129.672 190.112 129.775 168.706 120.506 149.619Z" fill="url(#paint2_linear_269_1169)"/>
<path d="M507.419 138.221H300.897C282.585 138.221 267.737 122.212 267.737 102.464C267.737 82.716 282.585 66.707 300.897 66.707H507.419C491.632 86.532 491.018 115.612 505.947 136.192L507.419 138.221Z" fill="url(#paint3_linear_269_1169)"/>
<path d="M270.459 102.465C270.459 82.717 285.476 66.708 304 66.708H511.179C512.144 66.708 512.924 65.866 512.919 64.838C512.909 63.816 512.129 63 511.179 63H182.517C162.072 63 145.5 80.667 145.5 102.465C145.5 124.263 162.072 141.93 182.517 141.93H511.179C512.134 141.93 512.909 141.109 512.919 140.097C512.929 139.069 512.149 138.227 511.179 138.227H304C285.476 138.222 270.459 122.213 270.459 102.465Z" fill="#1D9BEF"/>
<path d="M238.861 180.935C238.861 176.795 244.104 173.438 250.565 173.438H276.32C271.416 173.438 267.444 175.984 267.444 179.125L267.566 259.482L253.336 249.148L238.833 259.482L238.861 180.935Z" fill="#A80311"/>
<path d="M0 281.617H597.087C615.627 281.617 630.66 296.65 630.66 315.189V343.427C630.66 361.967 615.627 377 597.087 377H0L0.315002 376.675C25.857 350.089 25.718 308.037 0 281.617Z" fill="#023828"/>
<path d="M10.5708 295.736H329.761C348.301 295.736 363.334 310.769 363.334 329.308C363.334 347.848 348.301 362.881 329.761 362.881H10.5758C22.3098 342.09 22.2938 316.506 10.5708 295.736Z" fill="url(#paint4_linear_269_1169)"/>
<path d="M105.5 47C108.538 47 111 44.5376 111 41.5C111 38.4624 108.538 36 105.5 36C102.462 36 100 38.4624 100 41.5C100 44.5376 102.462 47 105.5 47Z" stroke="#E1E4E5" stroke-width="3.312" stroke-linecap="round" stroke-linejoin="round"/>
<path d="M517.822 177.644C520.485 177.644 522.644 175.485 522.644 172.822C522.644 170.159 520.485 168 517.822 168C515.159 168 513 170.159 513 172.822C513 175.485 515.159 177.644 517.822 177.644Z" fill="#E1E4E5"/>
<path d="M448.429 30.6077L433.835 36.3138L434.759 20.6707L449.351 14.9688L448.429 30.6077Z" stroke="#E1E4E5" stroke-width="4.206" stroke-linecap="round" stroke-linejoin="round"/>
<path d="M65.4182 247.873C69.3122 244.468 70.4242 237.63 70.4242 237.63C70.4242 237.63 62.8772 237.113 58.9842 240.518C55.0902 243.924 53.3712 248.332 55.1492 250.364C56.9272 252.396 61.5232 251.281 65.4182 247.873ZM567.123 255.525C561.226 250.367 559.542 240.011 559.542 240.011C559.542 240.011 570.971 239.228 576.868 244.386C582.765 249.543 585.368 256.22 582.676 259.297C579.983 262.375 573.023 260.687 567.123 255.525Z" fill="#E1E4E5"/>
<path d="M25.8128 178.153C21.9728 181.846 21.8533 187.952 25.5459 191.792C29.2385 195.632 35.3448 195.752 39.1848 192.059C43.0248 188.366 43.1443 182.26 39.4517 178.42C35.7591 174.58 29.6528 174.461 25.8128 178.153Z" fill="#E1E4E5"/>
<path d="M572.191 201.668C574.872 204.246 574.956 208.51 572.378 211.191C569.799 213.872 565.536 213.955 562.855 211.377C560.173 208.799 560.09 204.535 562.668 201.854C565.247 199.173 569.51 199.09 572.191 201.668Z" fill="#E1E4E5"/>
<path d="M61.209 116.418L51 106.209L61.209 96L71.418 106.209L61.209 116.418ZM550.209 112.418L560.418 102.209L550.209 92L540 102.209L550.209 112.418Z" stroke="#E1E4E5" stroke-width="5.42" stroke-linecap="round" stroke-linejoin="round"/>
<defs>
<linearGradient id="paint0_linear_269_1169" x1="511.5" y1="417.5" x2="229" y2="11.5" gradientUnits="userSpaceOnUse">
<stop stop-color="#1D9BEF"/>
<stop offset="1" stop-color="#EEEEEE"/>
</linearGradient>
<linearGradient id="paint1_linear_269_1169" x1="214.347" y1="302.522" x2="214.692" y2="168.959" gradientUnits="userSpaceOnUse">
<stop stop-color="#EFEFEF"/>
<stop offset="1" stop-color="#EEEEEE"/>
</linearGradient>
<linearGradient id="paint2_linear_269_1169" x1="236.796" y1="242.619" x2="237.245" y2="84.7751" gradientUnits="userSpaceOnUse">
<stop stop-color="#EFEFEF"/>
<stop offset="1" stop-color="#EFEFEF"/>
</linearGradient>
<linearGradient id="paint3_linear_269_1169" x1="382.468" y1="178.316" x2="383.126" y2="-11.112" gradientUnits="userSpaceOnUse">
<stop stop-color="#EFEFEF"/>
<stop offset="1" stop-color="#EEEEEE"/>
</linearGradient>
<linearGradient id="paint4_linear_269_1169" x1="179.431" y1="400.526" x2="179.825" y2="222.67" gradientUnits="userSpaceOnUse">
<stop offset="1" stop-color="#EEEEEE"/>
</linearGradient>
</defs>
</svg>
