<?xml version="1.0" encoding="UTF-8"?>
<svg xmlns="http://www.w3.org/2000/svg" xmlns:xlink="http://www.w3.org/1999/xlink" width="600px" height="400px" viewBox="0 0 300 200" version="1.1">
<defs>
<linearGradient id="linear0" gradientUnits="userSpaceOnUse" x1="368.592987" y1="510.947998" x2="201.190002" y2="-244.319" gradientTransform="matrix(0.5,0,0,0.5,0,0)">
<stop offset="0" style="stop-color:rgb(100%,100%,100%);stop-opacity:1;"/>
<stop offset="1" style="stop-color:rgb(93.333333%,93.333333%,93.333333%);stop-opacity:1;"/>
</linearGradient>
<linearGradient id="linear1" gradientUnits="userSpaceOnUse" x1="392.382996" y1="236.347" x2="314.795013" y2="-112.302002" gradientTransform="matrix(0.5,0,0,0.5,0,0)">
<stop offset="0" style="stop-color:rgb(100%,100%,100%);stop-opacity:1;"/>
<stop offset="1" style="stop-color:rgb(93.333333%,93.333333%,93.333333%);stop-opacity:1;"/>
</linearGradient>
<linearGradient id="linear2" gradientUnits="userSpaceOnUse" x1="206.817993" y1="418.798004" x2="140.281998" y2="111.106003" gradientTransform="matrix(0.5,0,0,0.5,0,0)">
<stop offset="0" style="stop-color:rgb(100%,100%,100%);stop-opacity:1;"/>
<stop offset="1" style="stop-color:rgb(93.333333%,93.333333%,93.333333%);stop-opacity:1;"/>
</linearGradient>
<linearGradient id="linear3" gradientUnits="userSpaceOnUse" x1="91.334" y1="167.376999" x2="244.496994" y2="167.376999" gradientTransform="matrix(0.5,0,0,0.5,0,0)">
<stop offset="0" style="stop-color:rgb(17.647059%,64.313725%,29.019608%);stop-opacity:1;"/>
<stop offset="1" style="stop-color:rgb(17.254902%,49.803922%,63.921569%);stop-opacity:1;"/>
</linearGradient>
<linearGradient id="linear4" gradientUnits="userSpaceOnUse" x1="324" y1="268.953003" x2="461.705994" y2="268.953003" gradientTransform="matrix(0.5,0,0,0.5,0,0)">
<stop offset="0" style="stop-color:rgb(17.647059%,64.313725%,29.019608%);stop-opacity:1;"/>
<stop offset="0.5" style="stop-color:rgb(23.921569%,83.921569%,70.196078%);stop-opacity:1;"/>
<stop offset="1" style="stop-color:rgb(17.254902%,49.803922%,63.921569%);stop-opacity:1;"/>
</linearGradient>
<linearGradient id="linear5" gradientUnits="userSpaceOnUse" x1="361.125" y1="126.781998" x2="391.335999" y2="126.781998" gradientTransform="matrix(0.5,0,0,0.5,0,0)">
<stop offset="0" style="stop-color:rgb(17.647059%,64.313725%,29.019608%);stop-opacity:1;"/>
<stop offset="1" style="stop-color:rgb(17.254902%,49.803922%,63.921569%);stop-opacity:1;"/>
</linearGradient>
<linearGradient id="linear6" gradientUnits="userSpaceOnUse" x1="241.505005" y1="181.003006" x2="326.356995" y2="157.205002" gradientTransform="matrix(0.5,0,0,0.5,0,0)">
<stop offset="0" style="stop-color:rgb(100%,100%,100%);stop-opacity:1;"/>
<stop offset="1" style="stop-color:rgb(93.333333%,93.333333%,93.333333%);stop-opacity:1;"/>
</linearGradient>
</defs>
<g id="surface1">
<path style=" stroke:none;fill-rule:nonzero;fill:url(#linear0);" d="M 237.78125 118.28125 C 239.023438 141.171875 194.273438 187.710938 139.117188 170.484375 C 113.46875 162.46875 115.640625 149.171875 96.136719 131.648438 C 84.507812 121.203125 67.804688 113.300781 63.15625 98.117188 C 59.144531 85.011719 61.609375 70.921875 68.5625 61.761719 C 84.214844 41.15625 115.804688 27.046875 146.9375 59.511719 C 178.066406 91.976562 234.570312 59.253906 237.78125 118.28125 Z M 237.78125 118.28125 "/>
<path style=" stroke:none;fill-rule:nonzero;fill:url(#linear1);" d="M 225.511719 67.832031 C 221.160156 75.601562 211.628906 76.664062 196.359375 75.1875 C 184.871094 74.078125 174.398438 73.21875 162.914062 66.953125 C 154.875 62.574219 148.507812 56.648438 143.863281 50.890625 C 138.828125 44.65625 131.804688 37.539062 135.25 30.46875 C 139.984375 20.757812 167.351562 12.578125 193.929688 25.957031 C 223.125 40.65625 229.769531 60.242188 225.511719 67.832031 Z M 225.511719 67.832031 "/>
<path style=" stroke:none;fill-rule:nonzero;fill:url(#linear2);" d="M 114.730469 162.832031 C 104.59375 148.648438 94.207031 133.570312 80.609375 126.140625 C 66.585938 118.480469 64 123.203125 63.03125 130.710938 C 62.0625 138.21875 66.386719 156.011719 85.523438 166.132812 C 104.667969 176.257812 124.21875 176.109375 114.730469 162.832031 Z M 114.730469 162.832031 "/>
<path style="fill-rule:nonzero;fill:rgb(100%,100%,100%);fill-opacity:1;stroke-width:4;stroke-linecap:butt;stroke-linejoin:miter;stroke:rgb(88.235295%,89.411765%,89.803922%);stroke-opacity:1;stroke-miterlimit:4;" d="M 463.875 323.726562 L 134.710938 323.726562 C 124.976562 323.726562 117.085938 315.835938 117.085938 306.101562 L 117.085938 99.859375 C 117.085938 90.125 124.976562 82.234375 134.710938 82.234375 L 463.875 82.234375 C 473.609375 82.234375 481.5 90.125 481.5 99.859375 L 481.5 306.101562 C 481.5 315.835938 473.609375 323.726562 463.875 323.726562 Z M 463.875 323.726562 " transform="matrix(0.5,0,0,0.5,0,0)"/>
<path style="fill-rule:nonzero;fill:rgb(100%,100%,100%);fill-opacity:1;stroke-width:4;stroke-linecap:butt;stroke-linejoin:miter;stroke:rgb(88.235295%,89.411765%,89.803922%);stroke-opacity:1;stroke-miterlimit:4;" d="M 481.5 99.859375 C 481.5 101.328125 480.914062 102.75 479.875 103.78125 C 478.828125 104.828125 477.414062 105.414062 475.9375 105.414062 L 122.640625 105.414062 C 121.171875 105.414062 119.75 104.828125 118.71875 103.78125 C 117.671875 102.75 117.085938 101.328125 117.085938 99.859375 C 117.085938 90.125 124.976562 82.234375 134.710938 82.234375 L 463.875 82.234375 C 473.609375 82.234375 481.5 90.125 481.5 99.859375 Z M 481.5 99.859375 " transform="matrix(0.5,0,0,0.5,0,0)"/>
<path style=" stroke:none;fill-rule:nonzero;fill:rgb(88.235295%,89.411765%,89.803922%);fill-opacity:1;" d="M 67.371094 49.363281 C 67.640625 49.367188 67.90625 49.316406 68.15625 49.214844 C 68.40625 49.117188 68.636719 48.964844 68.828125 48.773438 C 69.019531 48.585938 69.171875 48.359375 69.273438 48.113281 C 69.382812 47.863281 69.433594 47.597656 69.433594 47.328125 C 69.433594 47.058594 69.382812 46.789062 69.273438 46.542969 C 69.171875 46.292969 69.019531 46.070312 68.828125 45.878906 C 68.636719 45.6875 68.40625 45.539062 68.15625 45.4375 C 67.90625 45.335938 67.640625 45.289062 67.371094 45.292969 C 66.835938 45.296875 66.328125 45.515625 65.949219 45.898438 C 65.570312 46.277344 65.363281 46.792969 65.363281 47.328125 C 65.363281 47.863281 65.570312 48.375 65.949219 48.757812 C 66.328125 49.140625 66.835938 49.355469 67.371094 49.363281 Z M 75.851562 49.363281 C 76.125 49.367188 76.390625 49.316406 76.640625 49.214844 C 76.890625 49.117188 77.117188 48.964844 77.3125 48.773438 C 77.5 48.585938 77.65625 48.359375 77.757812 48.113281 C 77.859375 47.863281 77.914062 47.597656 77.914062 47.328125 C 77.914062 47.058594 77.859375 46.789062 77.757812 46.542969 C 77.65625 46.292969 77.5 46.070312 77.3125 45.878906 C 77.117188 45.6875 76.890625 45.539062 76.640625 45.4375 C 76.390625 45.335938 76.125 45.289062 75.851562 45.292969 C 75.320312 45.296875 74.804688 45.515625 74.429688 45.898438 C 74.054688 46.277344 73.84375 46.792969 73.84375 47.328125 C 73.84375 47.863281 74.054688 48.375 74.429688 48.757812 C 74.804688 49.140625 75.320312 49.355469 75.851562 49.363281 Z M 83.996094 49.363281 C 84.265625 49.367188 84.53125 49.316406 84.78125 49.214844 C 85.03125 49.117188 85.257812 48.964844 85.453125 48.773438 C 85.644531 48.585938 85.796875 48.359375 85.898438 48.113281 C 86.003906 47.863281 86.058594 47.597656 86.058594 47.328125 C 86.058594 47.058594 86.003906 46.789062 85.898438 46.542969 C 85.796875 46.292969 85.644531 46.070312 85.453125 45.878906 C 85.257812 45.6875 85.03125 45.539062 84.78125 45.4375 C 84.53125 45.335938 84.265625 45.289062 83.996094 45.292969 C 83.460938 45.296875 82.949219 45.515625 82.574219 45.898438 C 82.195312 46.277344 81.984375 46.792969 81.984375 47.328125 C 81.984375 47.863281 82.195312 48.375 82.574219 48.757812 C 82.949219 49.140625 83.460938 49.355469 83.996094 49.363281 Z M 83.996094 49.363281 "/>
<path style=" stroke:none;fill-rule:nonzero;fill:url(#linear3);" d="M 118.578125 69.003906 L 49.335938 69.003906 C 47.3125 69.003906 45.667969 70.648438 45.667969 72.675781 L 45.667969 94.703125 C 45.667969 96.730469 47.3125 98.375 49.335938 98.375 L 118.578125 98.375 C 120.605469 98.375 122.25 96.730469 122.25 94.703125 L 122.25 72.675781 C 122.25 70.648438 120.605469 69.003906 118.578125 69.003906 Z M 118.578125 69.003906 "/>
<path style=" stroke:none;fill-rule:nonzero;fill:rgb(100%,100%,100%);fill-opacity:1;" d="M 112.648438 78.023438 L 69.40625 78.023438 C 68.453125 78.023438 67.683594 78.796875 67.683594 79.75 C 67.683594 80.699219 68.453125 81.46875 69.40625 81.46875 L 112.648438 81.46875 C 113.597656 81.46875 114.371094 80.699219 114.371094 79.75 C 114.371094 78.796875 113.597656 78.023438 112.648438 78.023438 Z M 112.648438 78.023438 "/>
<path style=" stroke:none;fill-rule:nonzero;fill:rgb(100%,100%,100%);fill-opacity:1;" d="M 96.199219 85.71875 L 69.40625 85.71875 C 68.453125 85.71875 67.683594 86.488281 67.683594 87.4375 C 67.683594 88.390625 68.453125 89.164062 69.40625 89.164062 L 96.199219 89.164062 C 97.152344 89.164062 97.921875 88.390625 97.921875 87.4375 C 97.921875 86.488281 97.152344 85.71875 96.199219 85.71875 Z M 96.199219 85.71875 "/>
<path style=" stroke:none;fill-rule:nonzero;fill:rgb(100%,100%,100%);fill-opacity:1;" d="M 58.132812 89.164062 C 61.210938 89.164062 63.703125 86.671875 63.703125 83.59375 C 63.703125 80.515625 61.210938 78.023438 58.132812 78.023438 C 55.054688 78.023438 52.5625 80.515625 52.5625 83.59375 C 52.5625 86.671875 55.054688 89.164062 58.132812 89.164062 Z M 58.132812 89.164062 "/>
<path style=" stroke:none;fill-rule:nonzero;fill:url(#linear4);" d="M 227.179688 102.335938 L 165.671875 102.335938 C 163.640625 102.335938 162 103.976562 162 106.003906 L 162 162.949219 C 162 164.976562 163.640625 166.617188 165.671875 166.617188 L 227.179688 166.617188 C 229.210938 166.617188 230.851562 164.976562 230.851562 162.949219 L 230.851562 106.003906 C 230.851562 103.976562 229.210938 102.335938 227.179688 102.335938 Z M 227.179688 102.335938 "/>
<path style=" stroke:none;fill-rule:nonzero;fill:rgb(100%,100%,100%);fill-opacity:1;" d="M 222.21875 146.273438 L 183.34375 146.273438 C 182.488281 146.273438 181.796875 146.96875 181.796875 147.824219 C 181.796875 148.679688 182.488281 149.375 183.34375 149.375 L 222.21875 149.375 C 223.078125 149.375 223.769531 148.679688 223.769531 147.824219 C 223.769531 146.96875 223.078125 146.273438 222.21875 146.273438 Z M 222.21875 146.273438 "/>
<path style=" stroke:none;fill-rule:nonzero;fill:rgb(100%,100%,100%);fill-opacity:1;" d="M 181.671875 114.453125 L 181.671875 138.339844 C 181.671875 139.210938 182.378906 139.921875 183.25 139.921875 L 183.253906 139.921875 C 184.125 139.921875 184.835938 139.210938 184.835938 138.339844 L 184.835938 114.453125 C 184.835938 113.578125 184.125 112.871094 183.253906 112.871094 L 183.25 112.871094 C 182.378906 112.871094 181.671875 113.578125 181.671875 114.453125 Z M 181.671875 114.453125 "/>
<path style=" stroke:none;fill-rule:nonzero;fill:rgb(100%,100%,100%);fill-opacity:1;" d="M 195.375 114.453125 L 195.375 138.339844 C 195.375 139.210938 196.078125 139.921875 196.953125 139.921875 C 197.828125 139.921875 198.535156 139.210938 198.535156 138.339844 L 198.535156 114.453125 C 198.535156 113.578125 197.828125 112.871094 196.953125 112.871094 C 196.078125 112.871094 195.375 113.578125 195.375 114.453125 Z M 195.375 114.453125 "/>
<path style=" stroke:none;fill-rule:nonzero;fill:rgb(100%,100%,100%);fill-opacity:1;" d="M 209.070312 114.453125 L 209.070312 138.339844 C 209.070312 139.210938 209.78125 139.921875 210.65625 139.921875 C 211.527344 139.921875 212.234375 139.210938 212.234375 138.339844 L 212.234375 114.453125 C 212.234375 113.578125 211.527344 112.871094 210.65625 112.871094 C 209.78125 112.871094 209.070312 113.578125 209.070312 114.453125 Z M 209.070312 114.453125 "/>
<path style=" stroke:none;fill-rule:nonzero;fill:rgb(100%,100%,100%);fill-opacity:1;" d="M 207.433594 153.191406 L 183.34375 153.191406 C 182.488281 153.191406 181.796875 153.882812 181.796875 154.742188 C 181.796875 155.59375 182.488281 156.289062 183.34375 156.289062 L 207.433594 156.289062 C 208.289062 156.289062 208.984375 155.59375 208.984375 154.742188 C 208.984375 153.882812 208.289062 153.191406 207.433594 153.191406 Z M 207.433594 153.191406 "/>
<path style=" stroke:none;fill-rule:nonzero;fill:rgb(100%,100%,100%);fill-opacity:1;" d="M 188.695312 123.761719 L 188.695312 138.515625 C 188.695312 139.292969 189.328125 139.921875 190.101562 139.921875 C 190.878906 139.921875 191.507812 139.292969 191.507812 138.515625 L 191.507812 123.761719 C 191.507812 122.984375 190.878906 122.359375 190.101562 122.359375 C 189.328125 122.359375 188.695312 122.984375 188.695312 123.761719 Z M 188.695312 123.761719 "/>
<path style=" stroke:none;fill-rule:nonzero;fill:rgb(100%,100%,100%);fill-opacity:1;" d="M 202.398438 123.761719 L 202.398438 138.515625 C 202.398438 139.292969 203.027344 139.921875 203.804688 139.921875 C 204.578125 139.921875 205.210938 139.292969 205.210938 138.515625 L 205.210938 123.761719 C 205.210938 122.984375 204.578125 122.359375 203.804688 122.359375 C 203.027344 122.359375 202.398438 122.984375 202.398438 123.761719 Z M 202.398438 123.761719 "/>
<path style=" stroke:none;fill-rule:nonzero;fill:rgb(100%,100%,100%);fill-opacity:1;" d="M 216.097656 123.761719 L 216.097656 138.515625 C 216.097656 139.292969 216.726562 139.921875 217.503906 139.921875 C 218.28125 139.921875 218.90625 139.292969 218.90625 138.515625 L 218.90625 123.761719 C 218.90625 122.984375 218.28125 122.359375 217.503906 122.359375 C 216.726562 122.359375 216.097656 122.984375 216.097656 123.761719 Z M 216.097656 123.761719 "/>
<path style=" stroke:none;fill-rule:nonzero;fill:rgb(100%,100%,100%);fill-opacity:1;" d="M 173.210938 156.289062 C 175.976562 156.289062 178.21875 154.046875 178.21875 151.28125 C 178.21875 148.515625 175.976562 146.273438 173.210938 146.273438 C 170.445312 146.273438 168.203125 148.515625 168.203125 151.28125 C 168.203125 154.046875 170.445312 156.289062 173.210938 156.289062 Z M 173.210938 156.289062 "/>
<path style="fill-rule:nonzero;fill:rgb(100%,100%,100%);fill-opacity:1;stroke-width:4;stroke-linecap:butt;stroke-linejoin:miter;stroke:rgb(88.235295%,89.411765%,89.803922%);stroke-opacity:1;stroke-miterlimit:4;" d="M 495.328125 98.046875 L 364.625 98.046875 C 357.992188 98.046875 352.625 103.414062 352.625 110.046875 L 352.625 143.734375 C 352.625 150.359375 357.992188 155.734375 364.625 155.734375 L 495.328125 155.734375 C 501.960938 155.734375 507.328125 150.359375 507.328125 143.734375 L 507.328125 110.046875 C 507.328125 103.414062 501.960938 98.046875 495.328125 98.046875 Z M 495.328125 98.046875 " transform="matrix(0.5,0,0,0.5,0,0)"/>
<path style=" stroke:none;fill-rule:nonzero;fill:rgb(88.235295%,89.411765%,89.803922%);fill-opacity:1;" d="M 244.46875 57.621094 L 200.039062 57.621094 C 199.0625 57.621094 198.265625 58.414062 198.265625 59.390625 C 198.265625 60.371094 199.0625 61.164062 200.039062 61.164062 L 244.46875 61.164062 C 245.445312 61.164062 246.238281 60.371094 246.238281 59.390625 C 246.238281 58.414062 245.445312 57.621094 244.46875 57.621094 Z M 244.46875 57.621094 "/>
<path style=" stroke:none;fill-rule:nonzero;fill:rgb(88.235295%,89.411765%,89.803922%);fill-opacity:1;" d="M 227.570312 65.527344 L 200.039062 65.527344 C 199.0625 65.527344 198.265625 66.320312 198.265625 67.296875 C 198.265625 68.277344 199.0625 69.070312 200.039062 69.070312 L 227.570312 69.070312 C 228.546875 69.070312 229.339844 68.277344 229.339844 67.296875 C 229.339844 66.320312 228.546875 65.527344 227.570312 65.527344 Z M 227.570312 65.527344 "/>
<path style=" stroke:none;fill-rule:evenodd;fill:url(#linear5);" d="M 188.117188 71.050781 C 183.945312 71.050781 180.5625 67.621094 180.5625 63.390625 C 180.5625 59.164062 183.945312 55.734375 188.117188 55.734375 C 192.285156 55.734375 195.667969 59.164062 195.667969 63.390625 C 195.667969 67.621094 192.285156 71.050781 188.117188 71.050781 Z M 188.117188 71.050781 "/>
<path style="fill:none;stroke-width:3.568;stroke-linecap:round;stroke-linejoin:round;stroke:rgb(100%,100%,100%);stroke-opacity:1;stroke-miterlimit:4;" d="M 381.546875 124.234375 L 375.171875 131.03125 L 371.335938 126.953125 " transform="matrix(0.5,0,0,0.5,0,0)"/>
<path style=" stroke:none;fill-rule:nonzero;fill:rgb(88.235295%,89.411765%,89.803922%);fill-opacity:1;" d="M 176.429688 95.902344 C 175.859375 95.695312 175.375 95.410156 175.046875 95.1875 C 174.980469 95.140625 174.929688 95.085938 174.886719 95.023438 C 174.84375 94.957031 174.820312 94.882812 174.8125 94.804688 C 174.800781 94.734375 174.804688 94.65625 174.828125 94.578125 C 174.851562 94.507812 174.890625 94.4375 174.9375 94.382812 C 175.023438 94.28125 175.148438 94.21875 175.277344 94.199219 C 175.410156 94.179688 175.542969 94.210938 175.652344 94.289062 C 175.929688 94.472656 176.332031 94.710938 176.804688 94.882812 L 176.855469 94.90625 C 177.976562 95.300781 178.9375 95.136719 179.71875 94.417969 C 180.152344 94.015625 180.53125 93.652344 180.867188 93.332031 C 182.351562 91.910156 183.164062 91.125 184.726562 90.921875 C 186.316406 90.714844 187.359375 91.898438 188.28125 92.945312 C 188.945312 93.695312 189.570312 94.398438 190.210938 94.367188 L 190.351562 94.363281 L 190.4375 94.40625 C 190.546875 94.433594 191.621094 94.640625 193.171875 92.6875 C 194.140625 91.464844 195.054688 90.804688 195.976562 90.675781 C 196.585938 90.585938 197.109375 90.742188 197.554688 90.96875 C 197.625 91.007812 197.683594 91.054688 197.734375 91.113281 C 197.78125 91.171875 197.8125 91.242188 197.835938 91.3125 C 197.851562 91.390625 197.859375 91.46875 197.84375 91.539062 C 197.832031 91.617188 197.804688 91.6875 197.761719 91.75 C 197.6875 91.863281 197.578125 91.945312 197.449219 91.976562 C 197.320312 92.007812 197.183594 91.992188 197.066406 91.933594 C 196.402344 91.585938 195.496094 91.5 194.023438 93.363281 C 192.136719 95.742188 190.625 95.578125 190.160156 95.457031 C 189.054688 95.453125 188.25 94.542969 187.46875 93.660156 C 186.65625 92.738281 185.886719 91.867188 184.867188 92 C 183.664062 92.15625 183.023438 92.769531 181.617188 94.117188 C 181.234375 94.484375 180.847656 94.851562 180.457031 95.214844 C 179.367188 96.222656 177.984375 96.464844 176.460938 95.914062 C 176.449219 95.910156 176.4375 95.90625 176.429688 95.902344 Z M 176.429688 95.902344 "/>
<path style=" stroke:none;fill-rule:nonzero;fill:rgb(88.235295%,89.411765%,89.803922%);fill-opacity:1;" d="M 198.304688 92.570312 C 197.738281 92.359375 197.257812 92.078125 196.921875 91.855469 C 196.859375 91.8125 196.804688 91.757812 196.765625 91.6875 C 196.726562 91.625 196.699219 91.554688 196.6875 91.476562 C 196.679688 91.398438 196.6875 91.320312 196.710938 91.25 C 196.730469 91.175781 196.765625 91.109375 196.820312 91.046875 C 196.90625 90.949219 197.027344 90.882812 197.15625 90.867188 C 197.289062 90.851562 197.421875 90.882812 197.53125 90.953125 C 197.808594 91.140625 198.210938 91.378906 198.683594 91.554688 L 198.734375 91.570312 C 199.859375 91.96875 200.820312 91.804688 201.601562 91.085938 C 202.03125 90.6875 202.414062 90.320312 202.746094 90 C 204.230469 88.578125 205.046875 87.796875 206.605469 87.589844 C 208.195312 87.382812 209.242188 88.566406 210.164062 89.609375 C 210.828125 90.359375 211.453125 91.070312 212.09375 91.039062 L 212.230469 91.03125 L 212.316406 91.074219 C 212.421875 91.101562 213.5 91.3125 215.046875 89.359375 C 216.015625 88.132812 216.9375 87.472656 217.851562 87.34375 C 218.464844 87.257812 218.984375 87.410156 219.4375 87.640625 C 219.503906 87.671875 219.5625 87.722656 219.609375 87.78125 C 219.660156 87.839844 219.695312 87.910156 219.714844 87.984375 C 219.734375 88.054688 219.738281 88.132812 219.726562 88.210938 C 219.710938 88.285156 219.683594 88.359375 219.640625 88.421875 C 219.570312 88.53125 219.457031 88.609375 219.328125 88.644531 C 219.199219 88.679688 219.0625 88.664062 218.945312 88.601562 C 218.28125 88.253906 217.375 88.167969 215.898438 90.03125 C 214.015625 92.410156 212.5 92.25 212.039062 92.125 C 210.933594 92.125 210.128906 91.210938 209.351562 90.328125 C 208.535156 89.40625 207.765625 88.53125 206.75 88.667969 C 205.539062 88.828125 204.902344 89.4375 203.5 90.78125 C 203.117188 91.15625 202.726562 91.519531 202.335938 91.882812 C 201.242188 92.890625 199.863281 93.132812 198.339844 92.585938 C 198.328125 92.578125 198.320312 92.578125 198.304688 92.570312 Z M 198.304688 92.570312 "/>
<path style="fill:none;stroke-width:5.5;stroke-linecap:round;stroke-linejoin:round;stroke:rgb(88.235295%,89.411765%,89.803922%);stroke-opacity:1;stroke-miterlimit:4;" d="M 152 221.5625 L 144.507812 229.046875 L 140.867188 225.421875 M 168.234375 217.984375 L 190.375 217.984375 M 168.40625 228.96875 L 205.03125 228.96875 M 152 247.195312 L 144.507812 254.679688 L 140.867188 251.046875 M 168.234375 243.609375 L 190.375 243.609375 M 168.40625 254.601562 L 205.03125 254.601562 M 205.03125 280.234375 L 168.234375 280.234375 M 205.03125 269.25 L 168.40625 269.25 " transform="matrix(0.5,0,0,0.5,0,0)"/>
<path style="fill:none;stroke-width:5.5;stroke-linecap:round;stroke-linejoin:round;stroke:rgb(88.235295%,89.411765%,89.803922%);stroke-opacity:1;stroke-miterlimit:4;" d="M 146.4375 283.898438 C 150.484375 283.898438 153.757812 280.617188 153.757812 276.578125 C 153.757812 272.53125 150.484375 269.25 146.4375 269.25 C 142.390625 269.25 139.109375 272.53125 139.109375 276.578125 C 139.109375 280.617188 142.390625 283.898438 146.4375 283.898438 Z M 146.4375 283.898438 " transform="matrix(0.5,0,0,0.5,0,0)"/>
<path style="fill:none;stroke-width:5.5;stroke-linecap:round;stroke-linejoin:round;stroke:rgb(88.235295%,89.411765%,89.803922%);stroke-opacity:1;stroke-miterlimit:4;" d="M 246.84375 221.5625 L 239.359375 229.046875 L 235.71875 225.421875 M 263.078125 217.984375 L 285.226562 217.984375 M 263.25 228.96875 L 299.875 228.96875 M 246.84375 247.195312 L 239.359375 254.679688 L 235.71875 251.046875 M 263.078125 243.609375 L 285.226562 243.609375 M 263.25 254.601562 L 299.875 254.601562 M 299.875 280.234375 L 263.078125 280.234375 M 299.875 269.25 L 263.25 269.25 " transform="matrix(0.5,0,0,0.5,0,0)"/>
<path style="fill:none;stroke-width:5.5;stroke-linecap:round;stroke-linejoin:round;stroke:rgb(88.235295%,89.411765%,89.803922%);stroke-opacity:1;stroke-miterlimit:4;" d="M 241.28125 283.898438 C 245.328125 283.898438 248.609375 280.617188 248.609375 276.578125 C 248.609375 272.53125 245.328125 269.25 241.28125 269.25 C 237.234375 269.25 233.953125 272.53125 233.953125 276.578125 C 233.953125 280.617188 237.234375 283.898438 241.28125 283.898438 Z M 241.28125 283.898438 " transform="matrix(0.5,0,0,0.5,0,0)"/>
<path style=" stroke:none;fill-rule:nonzero;fill:rgb(88.235295%,89.411765%,89.803922%);fill-opacity:1;" d="M 219.789062 89.09375 C 220.90625 89.296875 221.976562 88.558594 222.179688 87.445312 C 222.386719 86.328125 221.648438 85.257812 220.53125 85.054688 C 219.421875 84.847656 218.347656 85.585938 218.140625 86.703125 C 217.9375 87.816406 218.675781 88.886719 219.789062 89.09375 Z M 219.789062 89.09375 "/>
<path style=" stroke:none;fill-rule:evenodd;fill:rgb(88.235295%,89.411765%,89.803922%);fill-opacity:1;" d="M 170.914062 80.902344 L 170.1875 80.902344 C 170.105469 80.902344 170.023438 80.867188 169.96875 80.808594 C 169.90625 80.75 169.875 80.671875 169.875 80.585938 L 169.875 79.863281 C 169.875 79.6875 170.015625 79.546875 170.1875 79.546875 L 170.914062 79.546875 C 170.996094 79.546875 171.078125 79.578125 171.136719 79.640625 C 171.195312 79.699219 171.226562 79.78125 171.226562 79.863281 L 171.226562 80.585938 C 171.226562 80.625 171.21875 80.667969 171.203125 80.707031 C 171.1875 80.746094 171.164062 80.78125 171.136719 80.808594 C 171.109375 80.839844 171.070312 80.859375 171.03125 80.878906 C 170.996094 80.890625 170.953125 80.902344 170.914062 80.902344 Z M 168.40625 80.902344 L 167.679688 80.902344 C 167.597656 80.902344 167.515625 80.867188 167.457031 80.808594 C 167.398438 80.75 167.367188 80.671875 167.367188 80.585938 L 167.367188 79.863281 C 167.367188 79.6875 167.507812 79.546875 167.679688 79.546875 L 168.40625 79.546875 C 168.488281 79.546875 168.570312 79.578125 168.625 79.640625 C 168.6875 79.699219 168.71875 79.78125 168.71875 79.863281 L 168.71875 80.585938 C 168.71875 80.671875 168.6875 80.75 168.625 80.808594 C 168.570312 80.867188 168.488281 80.902344 168.40625 80.902344 Z M 165.894531 80.902344 L 165.171875 80.902344 C 165.085938 80.902344 165.007812 80.867188 164.945312 80.808594 C 164.890625 80.75 164.855469 80.671875 164.855469 80.585938 L 164.855469 79.863281 C 164.855469 79.6875 164.996094 79.546875 165.171875 79.546875 L 165.894531 79.546875 C 166.070312 79.546875 166.210938 79.6875 166.210938 79.863281 L 166.210938 80.585938 C 166.210938 80.625 166.203125 80.667969 166.1875 80.707031 C 166.171875 80.746094 166.148438 80.78125 166.117188 80.808594 C 166.085938 80.835938 166.054688 80.859375 166.015625 80.878906 C 165.976562 80.890625 165.9375 80.902344 165.894531 80.902344 Z M 163.382812 80.902344 L 162.664062 80.902344 C 162.578125 80.902344 162.5 80.867188 162.4375 80.808594 C 162.382812 80.75 162.34375 80.671875 162.34375 80.585938 L 162.34375 79.863281 C 162.34375 79.6875 162.488281 79.546875 162.664062 79.546875 L 163.382812 79.546875 C 163.5625 79.546875 163.703125 79.6875 163.703125 79.863281 L 163.703125 80.585938 C 163.703125 80.671875 163.667969 80.75 163.609375 80.808594 C 163.546875 80.867188 163.46875 80.898438 163.382812 80.902344 Z M 160.875 80.902344 L 160.152344 80.902344 C 160.070312 80.902344 159.988281 80.867188 159.929688 80.808594 C 159.867188 80.75 159.835938 80.671875 159.835938 80.585938 L 159.835938 79.863281 C 159.835938 79.6875 159.976562 79.546875 160.152344 79.546875 L 160.875 79.546875 C 160.960938 79.546875 161.039062 79.578125 161.101562 79.640625 C 161.15625 79.699219 161.191406 79.78125 161.195312 79.863281 L 161.195312 80.585938 C 161.191406 80.671875 161.15625 80.75 161.101562 80.808594 C 161.039062 80.867188 160.960938 80.902344 160.875 80.902344 Z M 168.3125 78.164062 L 167.589844 78.164062 C 167.507812 78.164062 167.425781 78.132812 167.367188 78.074219 C 167.304688 78.015625 167.273438 77.933594 167.273438 77.851562 L 167.273438 77.125 C 167.273438 76.953125 167.414062 76.808594 167.589844 76.808594 L 168.3125 76.808594 C 168.488281 76.808594 168.628906 76.953125 168.628906 77.125 L 168.628906 77.847656 C 168.628906 77.890625 168.621094 77.929688 168.605469 77.96875 C 168.589844 78.007812 168.566406 78.042969 168.539062 78.070312 C 168.507812 78.101562 168.472656 78.125 168.433594 78.140625 C 168.394531 78.15625 168.351562 78.164062 168.3125 78.164062 Z M 165.804688 78.164062 L 165.078125 78.164062 C 164.996094 78.164062 164.914062 78.132812 164.859375 78.070312 C 164.796875 78.015625 164.765625 77.933594 164.765625 77.851562 L 164.765625 77.125 C 164.765625 76.953125 164.90625 76.808594 165.078125 76.808594 L 165.804688 76.808594 C 165.976562 76.808594 166.117188 76.953125 166.117188 77.125 L 166.117188 77.847656 C 166.117188 77.890625 166.109375 77.929688 166.09375 77.96875 C 166.078125 78.007812 166.054688 78.042969 166.027344 78.070312 C 166 78.101562 165.960938 78.125 165.925781 78.140625 C 165.886719 78.15625 165.84375 78.164062 165.804688 78.164062 Z M 163.296875 78.164062 L 162.570312 78.164062 C 162.488281 78.164062 162.40625 78.132812 162.347656 78.074219 C 162.289062 78.015625 162.253906 77.933594 162.253906 77.851562 L 162.253906 77.125 C 162.253906 76.953125 162.398438 76.808594 162.570312 76.808594 L 163.296875 76.808594 C 163.46875 76.808594 163.609375 76.953125 163.609375 77.125 L 163.609375 77.847656 C 163.609375 77.929688 163.578125 78.015625 163.515625 78.070312 C 163.460938 78.132812 163.378906 78.164062 163.296875 78.164062 Z M 165.894531 83.839844 L 165.171875 83.839844 C 165.085938 83.839844 165.007812 83.804688 164.945312 83.75 C 164.890625 83.6875 164.855469 83.609375 164.855469 83.523438 L 164.855469 82.800781 C 164.855469 82.625 164.996094 82.484375 165.171875 82.484375 L 165.894531 82.484375 C 166.070312 82.484375 166.210938 82.625 166.210938 82.800781 L 166.210938 83.523438 C 166.210938 83.566406 166.203125 83.609375 166.1875 83.644531 C 166.171875 83.683594 166.148438 83.71875 166.117188 83.75 C 166.085938 83.777344 166.054688 83.800781 166.015625 83.816406 C 165.976562 83.832031 165.9375 83.84375 165.894531 83.839844 Z M 163.382812 83.839844 L 162.664062 83.839844 C 162.578125 83.839844 162.5 83.804688 162.4375 83.75 C 162.382812 83.6875 162.34375 83.609375 162.34375 83.523438 L 162.34375 82.800781 C 162.34375 82.625 162.488281 82.484375 162.664062 82.484375 L 163.382812 82.484375 C 163.5625 82.484375 163.703125 82.625 163.703125 82.800781 L 163.703125 83.523438 C 163.703125 83.609375 163.667969 83.6875 163.609375 83.75 C 163.546875 83.804688 163.46875 83.839844 163.382812 83.839844 Z M 158.265625 69.660156 L 157.542969 69.660156 C 157.460938 69.660156 157.378906 69.625 157.320312 69.570312 C 157.261719 69.507812 157.226562 69.429688 157.226562 69.34375 L 157.226562 68.621094 C 157.226562 68.445312 157.367188 68.304688 157.542969 68.304688 L 158.265625 68.304688 C 158.351562 68.304688 158.429688 68.339844 158.492188 68.398438 C 158.546875 68.457031 158.582031 68.539062 158.582031 68.621094 L 158.582031 69.34375 C 158.582031 69.386719 158.574219 69.429688 158.558594 69.464844 C 158.542969 69.503906 158.519531 69.539062 158.492188 69.570312 C 158.460938 69.597656 158.425781 69.621094 158.386719 69.636719 C 158.351562 69.652344 158.308594 69.660156 158.265625 69.660156 Z M 155.757812 69.660156 L 155.035156 69.660156 C 154.953125 69.660156 154.871094 69.625 154.8125 69.570312 C 154.75 69.507812 154.71875 69.429688 154.71875 69.34375 L 154.71875 68.621094 C 154.71875 68.445312 154.859375 68.304688 155.035156 68.304688 L 155.757812 68.304688 C 155.84375 68.304688 155.921875 68.339844 155.980469 68.398438 C 156.039062 68.457031 156.074219 68.539062 156.074219 68.621094 L 156.074219 69.34375 C 156.074219 69.429688 156.039062 69.507812 155.980469 69.570312 C 155.921875 69.625 155.84375 69.660156 155.757812 69.660156 Z M 153.25 69.660156 L 152.523438 69.660156 C 152.441406 69.660156 152.359375 69.625 152.300781 69.570312 C 152.242188 69.507812 152.210938 69.429688 152.210938 69.34375 L 152.210938 68.621094 C 152.210938 68.445312 152.351562 68.304688 152.523438 68.304688 L 153.25 68.304688 C 153.421875 68.304688 153.5625 68.445312 153.5625 68.621094 L 153.5625 69.34375 C 153.5625 69.386719 153.554688 69.429688 153.539062 69.464844 C 153.523438 69.503906 153.5 69.539062 153.46875 69.570312 C 153.441406 69.597656 153.40625 69.621094 153.367188 69.636719 C 153.328125 69.652344 153.289062 69.660156 153.25 69.660156 Z M 150.738281 69.660156 L 150.015625 69.660156 C 149.929688 69.660156 149.851562 69.625 149.792969 69.570312 C 149.734375 69.507812 149.699219 69.429688 149.699219 69.34375 L 149.699219 68.621094 C 149.699219 68.445312 149.84375 68.304688 150.015625 68.304688 L 150.738281 68.304688 C 150.914062 68.304688 151.054688 68.445312 151.054688 68.621094 L 151.054688 69.34375 C 151.054688 69.429688 151.023438 69.507812 150.960938 69.570312 C 150.902344 69.625 150.820312 69.660156 150.738281 69.660156 Z M 148.230469 69.660156 L 147.507812 69.660156 C 147.421875 69.660156 147.34375 69.625 147.28125 69.570312 C 147.222656 69.507812 147.1875 69.429688 147.1875 69.34375 L 147.1875 68.621094 C 147.1875 68.445312 147.332031 68.304688 147.507812 68.304688 L 148.230469 68.304688 C 148.3125 68.304688 148.394531 68.339844 148.453125 68.398438 C 148.511719 68.457031 148.546875 68.539062 148.546875 68.621094 L 148.546875 69.34375 C 148.546875 69.429688 148.511719 69.507812 148.453125 69.570312 C 148.394531 69.625 148.3125 69.660156 148.230469 69.660156 Z M 155.664062 66.921875 L 154.945312 66.921875 C 154.859375 66.921875 154.78125 66.890625 154.71875 66.832031 C 154.660156 66.773438 154.625 66.695312 154.625 66.609375 L 154.625 65.882812 C 154.625 65.710938 154.769531 65.570312 154.945312 65.570312 L 155.664062 65.570312 C 155.84375 65.570312 155.984375 65.710938 155.984375 65.882812 L 155.984375 66.609375 C 155.984375 66.648438 155.976562 66.6875 155.960938 66.726562 C 155.945312 66.765625 155.921875 66.804688 155.890625 66.832031 C 155.859375 66.859375 155.828125 66.882812 155.789062 66.898438 C 155.75 66.914062 155.707031 66.921875 155.664062 66.921875 Z M 153.15625 66.921875 L 152.433594 66.921875 C 152.351562 66.921875 152.269531 66.890625 152.210938 66.832031 C 152.152344 66.773438 152.117188 66.695312 152.117188 66.609375 L 152.117188 65.882812 C 152.117188 65.710938 152.257812 65.570312 152.433594 65.570312 L 153.15625 65.570312 C 153.328125 65.570312 153.472656 65.710938 153.472656 65.882812 L 153.472656 66.609375 C 153.472656 66.648438 153.464844 66.6875 153.449219 66.726562 C 153.433594 66.765625 153.410156 66.804688 153.382812 66.832031 C 153.351562 66.859375 153.316406 66.882812 153.28125 66.898438 C 153.242188 66.914062 153.199219 66.921875 153.15625 66.921875 Z M 150.648438 66.921875 L 149.925781 66.921875 C 149.84375 66.921875 149.761719 66.890625 149.703125 66.832031 C 149.640625 66.773438 149.609375 66.695312 149.609375 66.609375 L 149.609375 65.882812 C 149.609375 65.710938 149.75 65.570312 149.925781 65.570312 L 150.648438 65.570312 C 150.820312 65.570312 150.964844 65.710938 150.964844 65.882812 L 150.964844 66.609375 C 150.964844 66.691406 150.929688 66.773438 150.871094 66.828125 C 150.8125 66.890625 150.734375 66.921875 150.648438 66.921875 Z M 153.25 72.601562 L 152.523438 72.601562 C 152.441406 72.601562 152.359375 72.566406 152.300781 72.507812 C 152.242188 72.445312 152.210938 72.367188 152.210938 72.28125 L 152.210938 71.558594 C 152.210938 71.382812 152.351562 71.242188 152.523438 71.242188 L 153.25 71.242188 C 153.421875 71.242188 153.5625 71.386719 153.5625 71.558594 L 153.5625 72.28125 C 153.5625 72.324219 153.554688 72.367188 153.539062 72.40625 C 153.523438 72.445312 153.5 72.476562 153.46875 72.507812 C 153.441406 72.535156 153.40625 72.558594 153.367188 72.578125 C 153.328125 72.59375 153.289062 72.601562 153.25 72.601562 Z M 150.738281 72.601562 L 150.015625 72.601562 C 149.929688 72.601562 149.851562 72.566406 149.792969 72.507812 C 149.734375 72.445312 149.699219 72.367188 149.699219 72.28125 L 149.699219 71.558594 C 149.699219 71.382812 149.84375 71.242188 150.015625 71.242188 L 150.738281 71.242188 C 150.914062 71.242188 151.054688 71.386719 151.054688 71.558594 L 151.054688 72.28125 C 151.054688 72.367188 151.023438 72.445312 150.960938 72.507812 C 150.902344 72.5625 150.820312 72.597656 150.738281 72.601562 Z M 150.738281 72.601562 "/>
<path style=" stroke:none;fill-rule:nonzero;fill:url(#linear6);" d="M 129.671875 87.742188 C 130.859375 92.179688 135.421875 94.8125 139.859375 93.625 C 144.296875 92.4375 146.929688 87.875 145.738281 83.4375 C 144.550781 79 139.988281 76.367188 135.550781 77.554688 C 131.113281 78.746094 128.480469 83.304688 129.671875 87.742188 Z M 129.671875 87.742188 "/>
<path style=" stroke:none;fill-rule:nonzero;fill:rgb(100%,100%,100%);fill-opacity:1;" d="M 131.96875 87.128906 C 132.816406 90.296875 136.074219 92.179688 139.242188 91.328125 C 142.414062 90.484375 144.292969 87.222656 143.445312 84.054688 C 142.59375 80.882812 139.335938 79.003906 136.167969 79.851562 C 133 80.703125 131.117188 83.960938 131.96875 87.128906 Z M 131.96875 87.128906 "/>
<path style=" stroke:none;fill-rule:nonzero;fill:rgb(17.254902%,49.803922%,63.921571%);fill-opacity:1;" d="M 139.859375 93.625 C 138.535156 93.980469 137.148438 94.003906 135.816406 93.695312 C 134.484375 93.382812 133.25 92.75 132.21875 91.84375 C 131.191406 90.945312 130.402344 89.804688 129.921875 88.523438 C 129.4375 87.242188 129.28125 85.863281 129.457031 84.507812 C 129.636719 83.148438 130.148438 81.859375 130.945312 80.746094 C 131.742188 79.632812 132.796875 78.734375 134.023438 78.132812 C 135.25 77.527344 136.609375 77.234375 137.976562 77.277344 C 139.34375 77.320312 140.679688 77.703125 141.863281 78.390625 L 140.617188 80.546875 C 139.789062 80.070312 138.851562 79.804688 137.894531 79.773438 C 136.9375 79.742188 135.988281 79.945312 135.128906 80.367188 C 134.269531 80.792969 133.53125 81.421875 132.96875 82.199219 C 132.414062 82.976562 132.054688 83.882812 131.929688 84.832031 C 131.804688 85.78125 131.917969 86.746094 132.253906 87.640625 C 132.59375 88.539062 133.144531 89.335938 133.867188 89.96875 C 134.585938 90.601562 135.449219 91.046875 136.382812 91.261719 C 137.3125 91.480469 138.289062 91.460938 139.210938 91.21875 Z M 139.859375 93.625 "/>
</g>
</svg>
