<svg xmlns="http://www.w3.org/2000/svg" width="264" height="322" viewBox="0 0 264 322" fill="none"><path d="M230.43 190.18V174.39C248.60 161.91 260.53 141.08 260.53 117.51C260.53 96.72 251.23 78.11 236.60 65.42C244.09 61.41 250.12 51.61 250.12 43.20V0L145.97 51.79C138.26 55.64 132.00 65.71 132.00 74.30C132.00 65.71 125.75 55.64 118.03 51.79L13.89 0.00V43.20C13.89 51.61 19.91 61.42 27.41 65.43C12.78 78.11 3.48 96.73 3.48 117.51C3.48 141.08 15.42 161.91 33.58 174.39V190.18L20.10 183.48L0 173.49V219.46C0 233.19 9.31 248.16 21.65 254.31L34.16 260.54C36.16 273.53 45.38 303.56 88.25 303.56C111.04 303.56 124.25 312.08 132 322C139.76 312.08 152.96 303.56 175.75 303.56C218.62 303.56 227.84 273.53 229.85 260.54L242.34 254.31C254.69 248.16 264 233.18 264 219.46V173.49L230.42 190.18L230.43 190.18ZM142.42 117.47C142.44 90.80 164.25 69.11 191.06 69.11C217.87 69.11 239.70 90.82 239.70 117.51C239.70 144.19 217.88 165.90 191.06 165.90C164.24 165.90 142.44 144.21 142.42 117.54V117.47ZM132.01 137.08C139.27 137.08 145.13 142.93 145.13 150.14C145.13 157.35 132.01 176.26 132.01 176.26C132.01 176.26 118.88 157.35 118.88 150.14C118.88 142.94 124.76 137.08 132.01 137.08ZM24.31 117.51C24.31 90.82 46.14 69.11 72.95 69.11C99.77 69.11 121.58 90.80 121.59 117.47V117.54C121.58 144.21 99.77 165.90 72.95 165.90C46.14 165.90 24.31 144.19 24.31 117.51ZM250.12 219.45C250.12 228.04 243.86 238.11 236.14 241.95L132.01 293.74L27.87 241.95C20.15 238.11 13.90 228.04 13.90 219.45V195.84L118.03 247.63C125.75 251.47 132.01 261.54 132.01 270.13C132.01 261.54 138.26 251.48 145.98 247.63L250.12 195.84V219.45ZM72.95 155.66C83.83 155.66 92.64 146.90 92.64 136.07C92.64 125.25 83.83 116.49 72.95 116.49C62.07 116.49 53.26 125.25 53.26 136.07C53.26 146.90 62.07 155.66 72.95 155.66ZM191.06 155.66C201.94 155.66 210.76 146.90 210.76 136.07C210.76 125.25 201.94 116.49 191.06 116.49C180.19 116.49 171.37 125.25 171.37 136.07C171.37 146.90 180.19 155.66 191.06 155.66Z" fill="#1DA1F2"/></svg>