<svg xmlns="http://www.w3.org/2000/svg" width="646" height="415" viewBox="0 0 646 415" fill="none"><path d="M578.97 140.56C595.45 86.24 507.96 51.71 507.96 51.71C507.96 51.71 403.88 99.72 387.18 91.97C370.48 84.22 468.16 33.54 468.16 33.54C439.97 11.88 340.50 0.82 340.50 0.82C340.50 0.82 286.01 98.70 271.74 87.08C257.46 75.46 324.41 2.87 324.41 2.87C289.92 -6.58 241.63 10.35 241.63 10.35C173.25 44.32 220.40 130.39 220.40 130.39C220.40 130.39 200.79 163.90 156.85 188.93C156.85 188.93 147.91 193.03 135.83 201.96L143.75 206.91C145.67 205.23 147.67 203.63 149.74 202.12C149.75 202.10 149.76 202.09 149.78 202.09C149.81 202.07 149.83 202.05 149.87 202.03C151.69 200.80 153.51 199.58 155.34 198.38L155.35 198.37L155.36 198.37C160.74 195.14 164.56 192.67 167.17 190.79L167.19 190.77C183.73 180.44 206.28 167.61 215.78 167.90C215.78 167.90 215.68 166.12 216.36 163.21C216.18 164.71 215.98 166.27 215.78 167.90C211.17 205.41 275.9 252.63 318.49 268.50C361.08 284.37 351.29 263.43 341.77 233.44C332.25 203.44 286.81 181.36 278.48 166.71C270.13 152.07 292.75 156.80 316.72 174.47C340.67 192.15 337.52 225.19 375.74 254.49C413.97 283.79 492.78 226.69 492.78 226.69C459.26 217.85 418.61 170.87 422.73 159.99C426.85 149.09 500.77 196.68 514.20 201.04C527.64 205.41 562.50 194.89 578.97 140.56Z" fill="url(#paint0_linear_280_1215)"/><path d="M108.29 91.94C108.29 71.18 125.13 54.34 145.90 54.34H442.54C463.30 54.34 480.14 71.18 480.14 91.94V322.78C480.14 343.55 463.30 360.38 442.54 360.38H145.90C125.13 360.38 108.29 343.55 108.29 322.78V91.94Z" fill="#2DA44A"/><path d="M151.64 92.99C155.97 92.99 159.47 89.48 159.47 85.15C159.47 80.83 155.97 77.32 151.64 77.32C147.31 77.32 143.80 80.83 143.80 85.15C143.80 89.48 147.31 92.99 151.64 92.99Z" fill="white"/><path d="M178.80 92.99C183.12 92.99 186.63 89.48 186.63 85.15C186.63 80.83 183.12 77.32 178.80 77.32C174.47 77.32 170.96 80.83 170.96 85.15C170.96 89.48 174.47 92.99 178.80 92.99Z" fill="white"/><path d="M205.95 92.99C210.28 92.99 213.79 89.48 213.79 85.15C213.79 80.83 210.28 77.32 205.95 77.32C201.63 77.32 198.12 80.83 198.12 85.15C198.12 89.48 201.63 92.99 205.95 92.99Z" fill="white"/><path d="M389.26 262.20H152.16C147.55 262.20 143.81 265.94 143.81 270.56C143.81 275.17 147.55 278.91 152.16 278.91H389.26C393.88 278.91 397.62 275.17 397.62 270.56C397.62 265.94 393.88 262.20 389.26 262.20Z" fill="white"/><path d="M370.99 213.11H152.68C147.78 213.11 143.81 217.08 143.81 221.99V221.99C143.81 226.89 147.78 230.86 152.68 230.86H370.99C375.89 230.86 379.87 226.89 379.87 221.99V221.99C379.87 217.08 375.89 213.11 370.99 213.11Z" fill="white"/><path d="M400.75 162.97H152.16C147.55 162.97 143.81 166.71 143.81 171.33C143.81 175.94 147.55 179.68 152.16 179.68H400.75C405.37 179.68 409.11 175.94 409.11 171.33C409.11 166.71 405.37 162.97 400.75 162.97Z" fill="white"/><path d="M44.03 414.63C43.21 412.39 57.57 355.05 59.48 353.12C61.41 351.20 123.36 350.00 123.36 350.00C123.36 350.00 151.27 323.69 174.35 310.96C183.46 305.93 195.60 302.91 197.15 307.52C198.11 310.38 193.89 315.90 188.53 321.48C188.51 321.49 188.49 321.51 188.48 321.52C181.01 329.27 171.37 337.07 170.46 337.80C170.41 337.83 170.39 337.85 170.39 337.85C170.39 337.85 221.32 338.59 228.86 339.22C236.40 339.84 246.34 340.27 246.53 345.50C246.72 350.30 233.18 352.24 232.38 352.35C233.22 352.34 250.94 352.23 251.73 359.07C252.32 364.15 232.92 368.27 232.34 368.39C232.8 368.39 241.51 368.44 241.34 372.51C241.05 379.21 221.39 381.75 220.59 381.86C221.02 381.87 228.01 382.09 227.53 385.75C226.36 394.83 158.94 402.79 138.50 404.63C118.03 406.47 44.86 416.86 44.03 414.63Z" fill="#F8AE9D"/><path d="M513.56 291.44H583.54V360.38H513.56V291.44Z" fill="url(#paint1_linear_280_1215)"/><path d="M590.86 273.69H541.76C536.00 273.69 531.32 278.37 531.32 284.13V332.18C531.32 337.95 536.00 342.63 541.76 342.63H590.86C596.63 342.63 601.30 337.95 601.30 332.18V284.13C601.30 278.37 596.63 273.69 590.86 273.69Z" fill="#2DA44A"/><path d="M583.05 85.17L573.53 75.65C569.46 71.57 562.84 71.57 558.76 75.65L549.24 85.17C545.16 89.25 545.16 95.86 549.24 99.94L558.76 109.46C562.84 113.54 569.46 113.54 573.53 109.46L583.05 99.94C587.13 95.86 587.13 89.25 583.05 85.17Z" fill="#2DA44A"/><path d="M521.40 117.01C525.72 117.01 529.23 120.52 529.23 124.85C529.23 129.17 525.72 132.68 521.40 132.68C517.07 132.68 513.56 129.17 513.56 124.85C513.56 120.52 517.07 117.01 521.40 117.01Z" fill="#E1E4E5"/><path d="M67.44 309.8C67.44 309.8 81.13 246.36 62.49 199.32C60.02 193.08 51.04 193.44 48.98 199.86C48.95 199.97 48.91 200.07 48.88 200.19C45.55 211.20 64.65 268.99 67.44 309.8ZM60.68 328.55C60.68 328.55 55.83 241.74 14.42 189.90C11.89 186.74 7.26 185.99 4.00 188.41C1.89 189.99 0.15 192.99 0.00 198.56C-0.38 213.41 43.22 278.74 60.68 328.55Z" fill="#2DA44A"/><path d="M36.74 171.33L23.69 158.79L36.74 146.26L49.80 158.79L36.74 171.33ZM528.71 252.80L515.65 239.74L528.71 226.69L541.76 239.74L528.71 252.80Z" stroke="#E1E4E5" stroke-width="5.31" stroke-linecap="round" stroke-linejoin="round"/><path d="M179.75 17.10C175.40 23.42 178.46 33.08 178.46 33.08C178.46 33.08 188.56 32.47 192.91 26.14C197.25 19.81 194.20 10.16 194.20 10.16C194.20 10.16 184.10 10.77 179.75 17.10Z" fill="#E1E4E5"/><path d="M629.03 226.18C608.40 247.17 569.84 242.74 569.84 242.74C569.84 242.74 564.73 204.28 585.38 183.30C606.00 162.31 644.55 166.72 644.55 166.72C644.55 166.72 649.65 205.18 629.03 226.18Z" fill="url(#paint2_linear_280_1215)"/><path d="M514.13 24.46C507.87 30.83 496.18 29.49 496.18 29.49C496.18 29.49 494.63 17.82 500.89 11.46C507.14 5.09 518.84 6.43 518.84 6.43C518.84 6.43 520.38 18.10 514.13 24.46Z" fill="url(#paint3_linear_280_1215)"/><path d="M84.71 104.16C93.89 120.38 89.53 144.96 89.53 144.96C89.53 144.96 63.26 137.73 54.08 121.51C44.90 105.29 44.32 88.27 52.77 83.48C61.23 78.68 75.53 87.95 84.71 104.16Z" fill="url(#paint4_linear_280_1215)"/><path d="M555.99 158.79H555.74C554.26 179.81 538.63 180.13 538.63 180.13C538.63 180.13 555.86 180.47 555.86 204.75C555.86 180.47 573.09 180.13 573.09 180.13C573.09 180.13 557.47 179.81 555.99 158.79Z" fill="#E1E4E5"/><defs><linearGradient id="paint0_linear_280_1215" x1="58.94" y1="426.90" x2="779.01" y2="-282.60" gradientUnits="userSpaceOnUse"><stop stop-color="white"/><stop offset="1" stop-color="#EEEEEE"/></linearGradient><linearGradient id="paint1_linear_280_1215" x1="550.04" y1="399.03" x2="547.95" y2="216.45" gradientUnits="userSpaceOnUse"><stop stop-color="white"/><stop offset="1" stop-color="#EEEEEE"/></linearGradient><linearGradient id="paint2_linear_280_1215" x1="546.74" y1="297.88" x2="695.85" y2="64.14" gradientUnits="userSpaceOnUse"><stop stop-color="white"/><stop offset="1" stop-color="#EEEEEE"/></linearGradient><linearGradient id="paint3_linear_280_1215" x1="489.17" y1="46.21" x2="534.40" y2="-24.68" gradientUnits="userSpaceOnUse"><stop stop-color="white"/><stop offset="1" stop-color="#EEEEEE"/></linearGradient><linearGradient id="paint4_linear_280_1215" x1="107.22" y1="102.87" x2="12.07" y2="129.00" gradientUnits="userSpaceOnUse"><stop stop-color="white"/><stop offset="1" stop-color="#EEEEEE"/></linearGradient></defs></svg>