<svg xmlns="http://www.w3.org/2000/svg" width="289" height="312" viewBox="0 0 289 312" fill="none"><path fill-rule="evenodd" clip-rule="evenodd" d="M108.81 0C112.56 0 116.27 0.19 119.93 0.56C150.79 3.68 177.85 19.67 195.61 43.07L195.68 43.16C183.90 50.47 176.06 63.51 176.06 78.36C176.06 97.69 189.32 113.92 207.26 118.52L207.23 118.58C254.24 130.57 289 173.09 289 223.71C289 244.90 282.91 264.67 272.38 281.38C268.28 287.89 263.50 293.94 258.14 299.42L258.13 299.41C250.58 307.17 240.00 312 228.30 312C205.34 312 186.73 293.44 186.73 270.55C186.73 254.67 195.69 240.88 208.83 233.92L208.82 233.88C221.98 226.93 230.94 213.13 230.94 197.24C230.94 195.91 230.88 194.60 230.75 193.31C218.55 176.33 198.60 165.27 176.06 165.27C163.05 165.27 150.9 168.96 140.61 175.34L140.14 174.94C133.22 169.16 124.40 165.59 114.74 165.29L114.55 166.06C113.83 169.11 113.45 172.3 113.45 175.58C113.45 188.08 119.00 199.29 127.78 206.89C127.77 207.30 127.76 207.72 127.76 208.13C127.76 218.61 131.66 228.17 138.08 235.47L138.06 235.49C142.07 240.00 144.5 245.94 144.5 252.45C144.5 266.60 133.00 278.07 118.81 278.07C105.64 278.07 94.78 268.18 93.29 255.44L93.32 255.43C90.54 233.32 76.97 214.56 58.03 204.55L58.05 204.52C23.53 186.33 0 150.16 0 108.52C0 48.58 48.72 0 108.81 0ZM184.72 186.88C189.21 186.88 193.44 188.04 197.12 190.06C192.79 198.30 184.19 203.92 174.26 203.92C169.77 203.92 165.54 202.76 161.86 200.74C166.19 192.50 174.79 186.88 184.72 186.88Z" fill="#00C38C"/></svg>