<svg version="1.1" id="Layer_1" xmlns="http://www.w3.org/2000/svg" xmlns:xlink="http://www.w3.org/1999/xlink" x="0px" y="0px"
	 width="100%" viewBox="0 0 658 660" enable-background="new 0 0 658 660" xml:space="preserve">
<path fill="#00CB89" opacity="1.000000" stroke="none" 
	d="
M416.000000,661.000000 
	C277.737946,661.000000 139.475891,661.000000 1.000000,661.000000 
	C1.000000,521.310059 1.000000,381.620056 1.358961,241.495438 
	C2.912502,241.859146 4.290788,242.479004 5.269697,243.486786 
	C9.406052,247.745117 13.266900,252.280319 17.522701,256.411163 
	C23.298513,262.017365 29.467476,267.218933 35.233540,272.834625 
	C39.834278,277.315399 44.091854,282.149109 48.488194,286.838898 
	C51.725109,290.291901 54.808243,293.900513 58.190811,297.203308 
	C66.740761,305.551575 75.489304,313.696777 84.024055,322.060303 
	C89.396889,327.325317 94.469986,332.894836 99.780090,338.225616 
	C108.384651,346.863708 117.105270,355.386169 125.714836,364.019348 
	C130.938522,369.257355 135.900558,374.763458 141.246201,379.870636 
	C146.437637,384.830505 152.290131,389.122925 157.279861,394.264038 
	C165.984283,403.232544 174.247787,412.628906 182.704224,421.838501 
	C183.038696,422.202759 183.473343,422.472870 183.832932,422.816559 
	C192.147949,430.763214 200.524246,438.647247 208.749191,446.686127 
	C214.791473,452.591705 220.564438,458.772247 226.584930,464.700775 
	C233.431442,471.442719 240.625687,477.860992 243.461212,487.590851 
	C243.805008,488.770538 245.289902,489.617706 246.244537,490.650787 
	C246.243118,490.682587 246.180084,490.678741 246.242523,490.890320 
	C246.404755,491.377991 246.544144,491.632477 246.874146,492.256104 
	C249.387405,498.684204 251.749634,504.721497 254.117508,511.134949 
	C254.518494,512.582764 254.774002,513.733765 255.330505,514.713867 
	C262.000916,526.461243 274.067108,529.628296 285.674286,532.726257 
	C294.327942,535.035889 294.981537,534.607544 296.239594,543.613098 
	C300.649323,544.176270 303.738037,546.373840 305.338226,550.856995 
	C305.845428,552.278076 307.808044,553.836182 309.331360,554.121704 
	C315.170685,555.215942 317.608795,558.538208 316.822388,563.810486 
	C319.603638,565.104126 323.450165,565.694336 324.009674,567.377258 
	C325.721344,572.526001 329.814209,574.079651 333.601074,576.923157 
	C338.048309,580.262634 341.552094,585.248840 345.325745,589.566101 
	C347.895782,592.506409 348.960480,596.125366 353.713013,596.719849 
	C355.309418,596.919556 356.725403,599.474121 357.988647,601.131653 
	C358.974762,602.425598 359.234528,604.658630 360.447662,605.323181 
	C364.404114,607.490662 367.660919,609.926453 368.487274,614.736084 
	C368.610687,615.454590 369.911255,616.498901 370.664307,616.496399 
	C376.027405,616.478638 378.252533,619.706482 379.469330,624.317810 
	C379.693665,625.167969 380.586090,626.082214 381.407196,626.493042 
	C385.034943,628.308228 387.672150,630.759644 388.306366,635.029602 
	C388.409485,635.723877 389.657623,636.758057 390.388641,636.768250 
	C396.195007,636.849487 399.196686,639.927979 400.310974,645.378235 
	C400.455750,646.086243 401.225616,646.714722 401.805054,647.278076 
	C406.523346,651.865784 411.265259,656.429199 416.000000,661.000000 
z"/>
<path fill="#00D87A" opacity="1.000000" stroke="none" 
	d="
M231.000000,0.999999 
	C290.354218,1.000000 349.708466,1.000000 409.647888,1.314965 
	C417.378601,5.376568 420.279297,13.357716 427.101837,17.883406 
	C432.940186,21.756218 436.521210,28.900084 441.521118,34.200565 
	C448.523926,41.624344 455.841095,48.758095 463.162537,55.873135 
	C472.003540,64.464890 480.949921,72.949516 489.926025,81.400505 
	C496.666168,87.746353 501.514832,96.096619 510.168762,100.443237 
	C511.107452,100.914719 511.579529,102.259422 512.356873,103.118713 
	C514.314575,105.282791 516.328125,107.396286 518.309814,109.538826 
	C520.065918,111.437485 521.840027,113.321022 523.545532,115.264465 
	C524.402283,116.240776 524.973267,117.507431 525.931885,118.348190 
	C531.319641,123.073647 536.926941,127.558601 542.159119,132.446991 
	C544.381897,134.523712 545.600098,137.651382 547.746826,139.838028 
	C557.106812,149.371841 566.683105,158.692841 576.091003,168.180206 
	C580.227539,172.351639 584.080688,176.803207 588.190796,181.002045 
	C591.421997,184.303040 594.865662,187.395264 598.186890,190.609192 
	C602.401489,194.687653 606.587402,198.795822 610.786377,202.890381 
	C612.982971,205.032349 615.228271,207.126709 617.368774,209.323257 
	C621.592834,213.657883 625.576660,218.244400 629.996704,222.365479 
	C635.229919,227.244797 640.838440,231.720352 646.230469,236.432510 
	C646.954041,237.064865 647.233704,238.195038 647.940552,238.858521 
	C651.587341,242.281342 655.306274,245.627243 659.000000,249.000000 
	C659.000000,328.020905 659.000000,407.041779 658.649841,486.438385 
	C654.948364,482.721375 651.054138,479.091675 647.507019,475.294403 
	C644.058899,471.603088 642.779907,465.975464 636.474731,465.487030 
	C635.156494,459.591522 629.426697,457.888977 625.809509,454.175385 
	C624.941345,453.284088 624.786133,451.728088 623.984253,450.735321 
	C622.861206,449.345123 621.483948,448.145782 620.135498,446.955414 
	C617.766052,444.863831 615.178467,442.996552 612.965027,440.755920 
	C608.694702,436.433319 602.826172,433.565430 600.578796,427.359161 
	C600.509705,427.168457 599.895569,427.234924 599.672363,427.031433 
	C594.093201,421.944092 588.472107,416.899353 583.033447,411.665192 
	C582.211121,410.873810 582.420715,409.101044 581.843079,407.935822 
	C581.383179,407.007996 580.463562,405.638428 579.725647,405.624176 
	C573.981262,405.513367 573.515198,400.292938 570.634094,397.317505 
	C567.612244,394.196747 562.416931,393.255768 561.382935,387.841156 
	C561.136597,386.551361 560.105042,384.685089 559.072205,384.400726 
	C555.105774,383.308868 550.992004,382.752228 546.766174,381.750977 
	C546.488098,380.936798 546.376953,380.367615 546.577881,379.532104 
	C548.107361,378.405670 549.324829,377.545471 550.542297,376.685303 
	C550.398743,376.280243 550.255188,375.875153 550.111633,375.470093 
	C548.397278,375.827026 546.682983,376.183929 545.026611,376.494629 
	C545.084595,376.448425 545.168335,376.570801 545.028076,376.299377 
	C544.661377,375.693939 544.434937,375.359985 544.082275,374.810608 
	C543.956116,374.595154 543.966370,374.095886 543.901550,373.799835 
	C543.522644,372.994110 543.208557,372.484436 542.697693,371.690399 
	C518.812195,320.981354 480.335236,288.223053 426.518127,273.154449 
	C400.771820,265.945557 384.207153,248.587585 379.154266,222.336136 
	C373.868835,194.876648 383.367767,172.291504 406.032684,155.546936 
	C406.828827,154.958771 407.769043,154.565567 408.951294,153.910065 
	C405.944305,150.203278 403.889954,147.151276 401.328796,144.610046 
	C393.313843,136.657471 385.107635,128.897614 376.855408,120.748795 
	C375.997650,120.012428 375.260071,119.590332 374.273804,119.143707 
	C373.665070,118.789040 373.304962,118.458908 372.783112,117.915573 
	C372.329529,117.500679 372.037750,117.298988 371.465881,117.034851 
	C370.794952,116.573601 370.404083,116.174782 369.891296,115.499603 
	C369.076660,114.904938 368.383942,114.586632 367.739288,114.254677 
	C367.787354,114.241035 367.808044,114.338791 367.674805,113.992737 
	C366.110901,112.870613 364.680237,112.094551 362.993958,111.320045 
	C362.501526,111.092773 362.264709,110.863945 361.932312,110.289627 
	C360.001862,109.048088 358.167023,108.152046 356.223633,107.299881 
	C356.115143,107.343773 356.018280,107.130638 355.815063,106.909622 
	C355.066925,106.462830 354.521973,106.237045 353.712524,105.985847 
	C353.306641,105.853638 353.165283,105.746841 352.866760,105.362808 
	C351.949249,104.788887 351.188843,104.492203 350.108521,104.167175 
	C348.848236,103.631859 347.907928,103.124901 346.853882,102.467781 
	C346.552979,102.138161 346.331848,102.025063 345.786041,101.933266 
	C345.340759,101.767326 345.186279,101.646461 344.865448,101.262466 
	C343.945038,100.730957 343.190918,100.462555 342.121704,100.198456 
	C340.876556,99.725021 339.946564,99.247292 338.858765,98.462021 
	C336.927063,97.506706 335.153107,96.858925 333.138367,96.258186 
	C332.555298,96.289864 332.258240,96.166077 331.877899,95.637177 
	C329.771912,94.697121 327.794373,94.053757 325.442535,93.465424 
	C324.385895,93.241501 323.703491,92.962563 322.876343,92.394951 
	C320.522003,91.616531 318.312439,91.126785 315.738037,90.707565 
	C314.924988,90.598885 314.476746,90.419693 313.826294,90.005035 
	C312.834106,89.620544 312.044098,89.471512 310.975555,89.427734 
	C310.134033,89.383507 309.571106,89.234009 308.839539,88.813034 
	C307.782684,88.005035 306.894409,87.468521 306.145599,86.635941 
	C307.416412,85.447754 308.547729,84.555634 310.546692,82.979340 
	C305.995544,78.295303 301.200653,74.194542 297.452209,69.293442 
	C292.661774,63.029892 284.034576,60.133690 282.007233,51.520863 
	C281.913055,51.120831 281.329742,50.822067 280.949951,50.505222 
	C275.082855,45.610291 269.081970,40.863632 263.419952,35.742233 
	C261.704437,34.190502 261.340698,30.289925 259.633942,29.748970 
	C255.166870,28.333118 254.346329,23.869627 251.431503,21.665928 
	C246.653793,18.053812 241.904678,14.821854 239.774979,8.909186 
	C239.621246,8.482385 238.495728,8.496772 238.052597,8.067839 
	C235.661575,5.753376 233.343338,3.363722 231.000000,0.999999 
z"/>
<path fill="#01CF84" opacity="1.000000" stroke="none" 
	d="
M416.468658,661.000000 
	C411.265259,656.429199 406.523346,651.865784 401.805054,647.278076 
	C401.225616,646.714722 400.455750,646.086243 400.310974,645.378235 
	C399.196686,639.927979 396.195007,636.849487 390.388641,636.768250 
	C389.657623,636.758057 388.409485,635.723877 388.306366,635.029602 
	C387.672150,630.759644 385.034943,628.308228 381.407196,626.493042 
	C380.586090,626.082214 379.693665,625.167969 379.469330,624.317810 
	C378.252533,619.706482 376.027405,616.478638 370.664307,616.496399 
	C369.911255,616.498901 368.610687,615.454590 368.487274,614.736084 
	C367.660919,609.926453 364.404114,607.490662 360.447662,605.323181 
	C359.234528,604.658630 358.974762,602.425598 357.988647,601.131653 
	C356.725403,599.474121 355.309418,596.919556 353.713013,596.719849 
	C348.960480,596.125366 347.895782,592.506409 345.325745,589.566101 
	C341.552094,585.248840 338.048309,580.262634 333.601074,576.923157 
	C329.814209,574.079651 325.721344,572.526001 324.009674,567.377258 
	C323.450165,565.694336 319.603638,565.104126 316.822388,563.810486 
	C317.608795,558.538208 315.170685,555.215942 309.331360,554.121704 
	C307.808044,553.836182 305.845428,552.278076 305.338226,550.856995 
	C303.738037,546.373840 300.649323,544.176270 296.239594,543.613098 
	C294.981537,534.607544 294.327942,535.035889 285.674286,532.726257 
	C274.067108,529.628296 262.000916,526.461243 255.330505,514.713867 
	C254.774002,513.733765 254.518494,512.582764 254.408508,511.311768 
	C259.562408,516.066162 263.792572,521.833557 271.111633,524.183716 
	C273.504730,525.044312 275.737579,525.589783 278.346100,526.112671 
	C279.467346,526.176453 280.212891,526.262756 281.208008,526.624268 
	C285.318848,526.708923 289.180206,526.518433 293.410095,526.252014 
	C294.529602,526.154114 295.280487,526.132141 296.265381,526.268066 
	C297.675171,525.898438 298.850952,525.370850 300.371429,524.729370 
	C306.718994,520.363647 313.942902,517.128418 318.490997,511.665466 
	C331.068726,496.557617 330.795807,474.420502 317.141113,458.675568 
	C306.776581,446.724426 301.866028,432.793213 300.939026,417.174408 
	C300.815491,415.092896 299.841064,412.557068 298.380341,411.137451 
	C282.946594,396.137909 277.232697,377.747314 278.800354,356.682709 
	C279.477509,347.583618 280.972687,346.535400 289.924377,349.278259 
	C289.326385,350.976898 288.810852,352.333801 288.617035,352.843842 
	C291.197906,356.435089 293.071991,359.619049 295.507324,362.291595 
	C298.852814,365.962921 303.685577,368.129059 305.855438,373.108307 
	C306.436676,374.442169 308.853790,374.900055 310.273743,375.965790 
	C311.682526,377.023193 313.017792,378.234436 314.174377,379.561951 
	C318.198090,384.180237 321.497742,389.726990 326.284790,393.294159 
	C330.599335,396.509186 335.123749,398.831360 337.605530,404.090546 
	C338.746948,406.509247 341.781982,408.015442 343.901184,409.996582 
	C346.261566,412.203247 348.573029,414.463013 350.875397,416.730530 
	C352.762238,418.588867 354.648560,420.451233 356.457397,422.384491 
	C360.460724,426.663208 364.247253,431.161407 368.454071,435.226685 
	C370.883087,437.574005 374.328491,438.893829 376.666748,441.305939 
	C381.760071,446.560089 386.173798,452.488251 391.407562,457.583954 
	C393.675873,459.792389 396.194427,461.141754 397.853363,464.432373 
	C402.195770,473.045746 403.130280,474.402924 402.940857,482.289673 
	C402.590515,483.242920 402.314148,483.848663 402.016846,484.444000 
	C388.122894,512.268921 394.465271,544.663757 417.771149,564.903076 
	C440.110962,584.303406 473.911987,585.876221 498.816101,568.220032 
	C504.582092,564.132080 509.357330,558.646790 514.877136,554.026611 
	C517.986206,556.530579 521.013062,558.602051 523.589905,561.131958 
	C532.910339,570.282593 542.037720,579.629578 551.324585,588.814819 
	C555.539062,592.983093 560.097473,596.807617 564.252136,601.031677 
	C572.464111,609.381104 580.473389,617.929504 588.622498,626.341309 
	C598.507996,636.545654 608.474243,646.671936 618.338074,656.897095 
	C619.449158,658.048889 620.123230,659.622192 621.000000,661.000000 
	C552.979126,661.000000 484.958221,661.000000 416.468658,661.000000 
z"/>
<path fill="#00DC75" opacity="1.000000" stroke="none" 
	d="
M659.000000,248.531342 
	C655.306274,245.627243 651.587341,242.281342 647.940552,238.858521 
	C647.233704,238.195038 646.954041,237.064865 646.230469,236.432510 
	C640.838440,231.720352 635.229919,227.244797 629.996704,222.365479 
	C625.576660,218.244400 621.592834,213.657883 617.368774,209.323257 
	C615.228271,207.126709 612.982971,205.032349 610.786377,202.890381 
	C606.587402,198.795822 602.401489,194.687653 598.186890,190.609192 
	C594.865662,187.395264 591.421997,184.303040 588.190796,181.002045 
	C584.080688,176.803207 580.227539,172.351639 576.091003,168.180206 
	C566.683105,158.692841 557.106812,149.371841 547.746826,139.838028 
	C545.600098,137.651382 544.381897,134.523712 542.159119,132.446991 
	C536.926941,127.558601 531.319641,123.073647 525.931885,118.348190 
	C524.973267,117.507431 524.402283,116.240776 523.545532,115.264465 
	C521.840027,113.321022 520.065918,111.437485 518.309814,109.538826 
	C516.328125,107.396286 514.314575,105.282791 512.356873,103.118713 
	C511.579529,102.259422 511.107452,100.914719 510.168762,100.443237 
	C501.514832,96.096619 496.666168,87.746353 489.926025,81.400505 
	C480.949921,72.949516 472.003540,64.464890 463.162537,55.873135 
	C455.841095,48.758095 448.523926,41.624344 441.521118,34.200565 
	C436.521210,28.900084 432.940186,21.756218 427.101837,17.883406 
	C420.279297,13.357716 417.378601,5.376568 410.116577,1.314965 
	C492.926910,1.000000 575.853821,1.000000 659.000000,1.000000 
	C659.000000,83.354095 659.000000,165.708389 659.000000,248.531342 
z"/>
<path fill="#00D083" opacity="1.000000" stroke="none" 
	d="
M246.245956,490.618988 
	C245.289902,489.617706 243.805008,488.770538 243.461212,487.590851 
	C240.625687,477.860992 233.431442,471.442719 226.584930,464.700775 
	C220.564438,458.772247 214.791473,452.591705 208.749191,446.686127 
	C200.524246,438.647247 192.147949,430.763214 183.832932,422.816559 
	C183.473343,422.472870 183.038696,422.202759 182.704224,421.838501 
	C174.247787,412.628906 165.984283,403.232544 157.279861,394.264038 
	C152.290131,389.122925 146.437637,384.830505 141.246201,379.870636 
	C135.900558,374.763458 130.938522,369.257355 125.714836,364.019348 
	C117.105270,355.386169 108.384651,346.863708 99.780090,338.225616 
	C94.469986,332.894836 89.396889,327.325317 84.024055,322.060303 
	C75.489304,313.696777 66.740761,305.551575 58.190811,297.203308 
	C54.808243,293.900513 51.725109,290.291901 48.488194,286.838898 
	C44.091854,282.149109 39.834278,277.315399 35.233540,272.834625 
	C29.467476,267.218933 23.298513,262.017365 17.522701,256.411163 
	C13.266900,252.280319 9.406052,247.745117 5.269697,243.486786 
	C4.290788,242.479004 2.912502,241.859146 1.358961,241.030426 
	C1.000000,172.645767 1.000000,104.291542 1.408974,35.471222 
	C11.304980,34.985512 15.618992,40.778328 17.790998,48.752518 
	C20.194616,49.022060 23.465624,49.883850 23.633385,51.155144 
	C24.185287,55.337486 26.761631,56.912483 30.106609,57.718037 
	C33.972664,58.649078 35.702271,61.090855 35.958054,64.769699 
	C36.157101,67.632530 37.657951,68.524139 40.336231,69.161743 
	C42.112316,69.584572 44.336811,71.360260 44.887283,73.019203 
	C46.023277,76.442726 48.047798,77.857224 51.261562,79.198273 
	C53.808266,80.260979 57.437614,83.354614 57.310917,85.337135 
	C56.920258,91.450211 62.208233,89.063423 64.301575,91.111351 
	C66.726494,93.483673 65.723099,98.690659 70.815117,98.908569 
	C74.784805,99.078453 76.731567,101.267174 77.147903,105.204369 
	C77.510376,108.632111 78.896965,111.036285 83.067024,111.222572 
	C84.414124,111.282738 86.516624,113.310020 86.788338,114.723053 
	C87.395058,117.878281 88.943222,119.565559 91.926468,119.874268 
	C96.222466,120.318817 97.715393,122.723183 98.191284,126.818069 
	C98.402023,128.631485 100.281563,131.458176 101.729515,131.677994 
	C105.105423,132.190552 106.537369,133.949509 107.850220,136.679337 
	C108.504890,138.040573 109.929893,139.676544 111.263443,139.954269 
	C116.999840,141.148987 117.972557,145.874359 120.281700,150.112564 
	C122.200645,153.634583 126.070580,156.093643 129.029114,159.368668 
	C112.961266,183.083786 103.169586,208.796982 99.726456,237.267029 
	C99.303246,240.033463 99.073288,242.503906 98.868011,245.444031 
	C98.860596,253.955887 98.828506,261.998047 98.607849,270.335388 
	C98.918808,273.096680 99.418327,275.562775 99.971992,278.481995 
	C101.028419,285.938019 102.030708,292.940887 102.984924,300.338562 
	C103.652962,303.461884 104.071678,306.313568 105.140884,308.895874 
	C108.358673,316.667389 111.829803,324.333954 115.288963,332.373352 
	C116.231750,334.521210 117.087692,336.337189 117.929802,338.465912 
	C118.556679,339.530945 119.197388,340.283295 119.974251,341.369934 
	C125.426857,349.604553 130.279999,357.870026 136.157562,365.328186 
	C147.896301,380.223785 161.628250,393.072601 178.193054,403.086334 
	C178.695572,403.475922 179.031281,403.636047 179.541779,403.837585 
	C179.716599,403.879028 179.957901,404.145264 180.085541,404.458771 
	C181.006546,405.044373 181.799881,405.316467 182.860809,405.687012 
	C183.739120,406.235687 184.349838,406.685883 185.073395,407.467804 
	C186.641998,408.412292 188.097748,409.025085 189.700546,409.651459 
	C189.847580,409.665070 190.035294,409.893036 190.152222,410.223511 
	C191.291046,410.968628 192.312973,411.383209 193.655365,411.894043 
	C204.186203,419.308960 214.504547,426.444794 222.458496,436.454590 
	C235.167862,452.448975 243.186752,470.425354 246.245956,490.618988 
z"/>
<path fill="#00D37F" opacity="1.000000" stroke="none" 
	d="
M621.468628,661.000000 
	C620.123230,659.622192 619.449158,658.048889 618.338074,656.897095 
	C608.474243,646.671936 598.507996,636.545654 588.622498,626.341309 
	C580.473389,617.929504 572.464111,609.381104 564.252136,601.031677 
	C560.097473,596.807617 555.539062,592.983093 551.324585,588.814819 
	C542.037720,579.629578 532.910339,570.282593 523.589905,561.131958 
	C521.013062,558.602051 517.986206,556.530579 514.990723,553.697510 
	C518.202942,548.812805 521.779907,544.613220 524.946594,540.124329 
	C545.023193,511.665649 555.553162,480.002747 556.580872,445.176086 
	C557.219910,423.521454 553.457825,402.550690 546.933167,381.995941 
	C550.992004,382.752228 555.105774,383.308868 559.072205,384.400726 
	C560.105042,384.685089 561.136597,386.551361 561.382935,387.841156 
	C562.416931,393.255768 567.612244,394.196747 570.634094,397.317505 
	C573.515198,400.292938 573.981262,405.513367 579.725647,405.624176 
	C580.463562,405.638428 581.383179,407.007996 581.843079,407.935822 
	C582.420715,409.101044 582.211121,410.873810 583.033447,411.665192 
	C588.472107,416.899353 594.093201,421.944092 599.672363,427.031433 
	C599.895569,427.234924 600.509705,427.168457 600.578796,427.359161 
	C602.826172,433.565430 608.694702,436.433319 612.965027,440.755920 
	C615.178467,442.996552 617.766052,444.863831 620.135498,446.955414 
	C621.483948,448.145782 622.861206,449.345123 623.984253,450.735321 
	C624.786133,451.728088 624.941345,453.284088 625.809509,454.175385 
	C629.426697,457.888977 635.156494,459.591522 636.474731,465.487030 
	C642.779907,465.975464 644.058899,471.603088 647.507019,475.294403 
	C651.054138,479.091675 654.948364,482.721375 658.649841,486.907043 
	C659.000000,544.880066 659.000000,602.760132 659.000000,661.000000 
	C646.648071,661.000000 634.292725,661.000000 621.468628,661.000000 
z"/>
<path fill="#00D380" opacity="1.000000" stroke="none" 
	d="
M129.076279,159.023560 
	C126.070580,156.093643 122.200645,153.634583 120.281700,150.112564 
	C117.972557,145.874359 116.999840,141.148987 111.263443,139.954269 
	C109.929893,139.676544 108.504890,138.040573 107.850220,136.679337 
	C106.537369,133.949509 105.105423,132.190552 101.729515,131.677994 
	C100.281563,131.458176 98.402023,128.631485 98.191284,126.818069 
	C97.715393,122.723183 96.222466,120.318817 91.926468,119.874268 
	C88.943222,119.565559 87.395058,117.878281 86.788338,114.723053 
	C86.516624,113.310020 84.414124,111.282738 83.067024,111.222572 
	C78.896965,111.036285 77.510376,108.632111 77.147903,105.204369 
	C76.731567,101.267174 74.784805,99.078453 70.815117,98.908569 
	C65.723099,98.690659 66.726494,93.483673 64.301575,91.111351 
	C62.208233,89.063423 56.920258,91.450211 57.310917,85.337135 
	C57.437614,83.354614 53.808266,80.260979 51.261562,79.198273 
	C48.047798,77.857224 46.023277,76.442726 44.887283,73.019203 
	C44.336811,71.360260 42.112316,69.584572 40.336231,69.161743 
	C37.657951,68.524139 36.157101,67.632530 35.958054,64.769699 
	C35.702271,61.090855 33.972664,58.649078 30.106609,57.718037 
	C26.761631,56.912483 24.185287,55.337486 23.633385,51.155144 
	C23.465624,49.883850 20.194616,49.022060 17.790998,48.752518 
	C15.618992,40.778328 11.304980,34.985512 1.408974,35.002563 
	C1.000000,23.702196 1.000000,12.404391 1.000000,1.000000 
	C36.020828,1.000000 71.041756,1.000000 106.620056,1.341932 
	C109.500244,3.612341 112.062393,5.318624 114.099266,7.512580 
	C119.387489,13.208605 124.364449,19.193256 129.639557,24.901993 
	C131.384247,26.790092 133.763794,28.075396 135.666321,29.837887 
	C138.042557,32.039211 140.235168,34.439774 142.489304,36.771469 
	C143.954926,38.287514 145.375793,39.846794 146.840408,41.363831 
	C148.629684,43.217182 150.338913,45.167465 152.278442,46.850304 
	C154.007309,48.350372 156.192291,49.342781 157.846771,50.907349 
	C164.005875,56.731750 168.359894,64.355148 175.846420,68.894608 
	C176.728516,69.429474 177.028397,70.850327 177.756042,71.729851 
	C179.196121,73.470558 180.652496,75.217171 182.272537,76.785286 
	C184.987701,79.413383 187.853363,81.885292 190.620132,84.461128 
	C191.698868,85.465424 192.528961,86.806129 193.733597,87.594124 
	C199.599655,91.431328 199.566635,95.741432 193.802322,100.164436 
	C192.234116,101.367722 191.302368,103.400482 190.059052,105.036804 
	C190.039597,105.021057 190.065887,105.054192 189.891754,105.136932 
	C189.490402,105.341248 189.278687,105.485580 188.795624,105.880264 
	C183.284515,109.172318 178.060272,112.236786 172.467407,115.324104 
	C171.420166,115.957382 170.741562,116.567810 169.933746,117.470917 
	C168.773422,118.495911 167.742310,119.228218 166.469635,120.057060 
	C165.844772,120.495796 165.461472,120.837997 164.926331,121.474411 
	C157.414810,128.529755 150.055115,135.290878 142.560089,142.171692 
	C142.253387,142.462128 142.103836,142.650238 141.894775,143.189880 
	C137.567734,148.690552 133.322006,153.857056 129.076279,159.023560 
z"/>
<path fill="#01D57E" opacity="1.000000" stroke="none" 
	d="
M190.078522,105.052551 
	C191.302368,103.400482 192.234116,101.367722 193.802322,100.164436 
	C199.566635,95.741432 199.599655,91.431328 193.733597,87.594124 
	C192.528961,86.806129 191.698868,85.465424 190.620132,84.461128 
	C187.853363,81.885292 184.987701,79.413383 182.272537,76.785286 
	C180.652496,75.217171 179.196121,73.470558 177.756042,71.729851 
	C177.028397,70.850327 176.728516,69.429474 175.846420,68.894608 
	C168.359894,64.355148 164.005875,56.731750 157.846771,50.907349 
	C156.192291,49.342781 154.007309,48.350372 152.278442,46.850304 
	C150.338913,45.167465 148.629684,43.217182 146.840408,41.363831 
	C145.375793,39.846794 143.954926,38.287514 142.489304,36.771469 
	C140.235168,34.439774 138.042557,32.039211 135.666321,29.837887 
	C133.763794,28.075396 131.384247,26.790092 129.639557,24.901993 
	C124.364449,19.193256 119.387489,13.208605 114.099266,7.512580 
	C112.062393,5.318624 109.500244,3.612341 107.088715,1.341932 
	C148.020889,1.000000 189.041794,1.000000 230.531342,0.999999 
	C233.343338,3.363722 235.661575,5.753376 238.052597,8.067839 
	C238.495728,8.496772 239.621246,8.482385 239.774979,8.909186 
	C241.904678,14.821854 246.653793,18.053812 251.431503,21.665928 
	C254.346329,23.869627 255.166870,28.333118 259.633942,29.748970 
	C261.340698,30.289925 261.704437,34.190502 263.419952,35.742233 
	C269.081970,40.863632 275.082855,45.610291 280.949951,50.505222 
	C281.329742,50.822067 281.913055,51.120831 282.007233,51.520863 
	C284.034576,60.133690 292.661774,63.029892 297.452209,69.293442 
	C301.200653,74.194542 305.995544,78.295303 310.546692,82.979340 
	C308.547729,84.555634 307.416412,85.447754 305.740967,86.637779 
	C302.172333,86.824783 299.147766,86.713875 295.699860,86.703690 
	C293.854919,86.576775 292.433380,86.349152 290.783112,85.885201 
	C288.662384,85.110039 286.777740,84.138222 284.877045,84.105721 
	C275.577026,83.946678 266.269958,83.919785 256.972046,84.134239 
	C254.961731,84.180603 252.978790,85.413658 250.581467,86.269165 
	C248.742310,86.494682 247.304947,86.551140 245.536331,86.455322 
	C241.127487,87.238792 237.049881,88.174545 232.717865,89.257927 
	C231.893295,89.371925 231.323135,89.338295 230.307983,89.244705 
	C225.906754,90.496918 221.950516,91.809074 217.745361,93.297623 
	C216.714432,93.674950 215.932373,93.875893 214.779114,94.049522 
	C212.941299,94.671715 211.474686,95.321213 209.814056,96.107628 
	C209.314667,96.387665 209.005325,96.396950 208.376251,96.250259 
	C207.363403,96.617638 206.666260,97.007149 205.741257,97.606636 
	C205.120148,97.923317 204.726898,98.030029 203.988617,98.121307 
	C202.761597,98.676514 201.879608,99.247147 200.711121,100.034203 
	C196.975922,101.851265 193.527222,103.451912 190.078522,105.052551 
z"/>
<path fill="#FCFEFD" opacity="1.000000" stroke="none" 
	d="
M190.059052,105.036804 
	C193.527222,103.451912 196.975922,101.851265 201.027908,99.986977 
	C202.532013,99.194473 203.432846,98.665611 204.333664,98.136749 
	C204.726898,98.030029 205.120148,97.923317 206.053131,97.668213 
	C207.292587,97.104012 207.992279,96.688202 208.691971,96.272400 
	C209.005325,96.396950 209.314667,96.387665 210.169540,96.122429 
	C212.196152,95.359161 213.673248,94.718002 215.150330,94.076843 
	C215.932373,93.875893 216.714432,93.674950 218.156677,93.314987 
	C222.795563,91.872208 226.774261,90.588432 230.752960,89.304657 
	C231.323135,89.338295 231.893295,89.371925 233.036285,89.333954 
	C237.695267,88.377434 241.781418,87.492516 245.867569,86.607605 
	C247.304947,86.551140 248.742310,86.494682 250.988617,86.347534 
	C264.868988,86.211739 277.940399,86.166634 291.011810,86.121521 
	C292.433380,86.349152 293.854919,86.576775 296.025085,86.909851 
	C300.851807,87.705025 304.929993,88.394768 309.008148,89.084511 
	C309.571106,89.234009 310.134033,89.383507 311.190369,89.649971 
	C312.465332,89.924789 313.246918,90.082642 314.028534,90.240494 
	C314.476746,90.419693 314.924988,90.598885 316.022827,90.926331 
	C318.788666,91.610931 320.904877,92.147278 323.021118,92.683624 
	C323.703491,92.962563 324.385895,93.241501 325.632721,93.735962 
	C328.133545,94.612267 330.069946,95.273071 332.006317,95.933876 
	C332.258240,96.166077 332.555298,96.289864 333.357117,96.539825 
	C335.549957,97.439468 337.283234,98.104515 339.016541,98.769562 
	C339.946564,99.247292 340.876556,99.725021 342.304718,100.447205 
	C343.545837,100.969635 344.288788,101.247612 345.031769,101.525589 
	C345.186279,101.646461 345.340759,101.767326 345.842102,102.141312 
	C346.188965,102.394424 346.537781,102.647339 346.537781,102.647339 
	C346.537781,102.647339 346.967621,102.617935 346.967621,102.617935 
	C347.907928,103.124901 348.848236,103.631859 350.297028,104.417374 
	C351.544983,105.010643 352.284454,105.325340 353.023926,105.640045 
	C353.165283,105.746841 353.306641,105.853638 353.865417,106.261246 
	C354.861328,106.751587 355.439789,106.941116 356.018280,107.130638 
	C356.018280,107.130638 356.115143,107.343773 356.418640,107.581512 
	C358.490753,108.757866 360.259308,109.696487 362.027893,110.635117 
	C362.264709,110.863945 362.501526,111.092773 363.185974,111.614639 
	C365.025055,112.718048 366.416565,113.528419 367.808044,114.338791 
	C367.808044,114.338791 367.787354,114.241035 367.860168,114.526588 
	C368.626404,115.133423 369.319794,115.454697 370.013214,115.775970 
	C370.404083,116.174782 370.794952,116.573601 371.564453,117.309303 
	C372.277008,117.807053 372.610962,117.967918 372.944885,118.128784 
	C373.304962,118.458908 373.665070,118.789040 374.425415,119.428513 
	C375.542267,120.179588 376.258911,120.621330 376.975525,121.063072 
	C385.107635,128.897614 393.313843,136.657471 401.328796,144.610046 
	C403.889954,147.151276 405.944305,150.203278 408.951294,153.910065 
	C407.769043,154.565567 406.828827,154.958771 406.032684,155.546936 
	C383.367767,172.291504 373.868835,194.876648 379.154266,222.336136 
	C384.207153,248.587585 400.771820,265.945557 426.518127,273.154449 
	C480.335236,288.223053 518.812195,320.981354 542.648254,372.014526 
	C543.185852,373.113983 543.576111,373.604950 543.966370,374.095886 
	C543.966370,374.095886 543.956116,374.595154 544.068237,375.153290 
	C544.509644,375.997864 544.838989,376.284332 545.168335,376.570801 
	C545.168335,376.570801 545.084595,376.448425 545.039490,376.858551 
	C545.418213,378.111908 545.842041,378.955139 546.265808,379.798401 
	C546.376953,380.367615 546.488098,380.936798 546.766174,381.750977 
	C553.457825,402.550690 557.219910,423.521454 556.580872,445.176086 
	C555.553162,480.002747 545.023193,511.665649 524.946594,540.124329 
	C521.779907,544.613220 518.202942,548.812805 514.702087,553.475342 
	C509.357330,558.646790 504.582092,564.132080 498.816101,568.220032 
	C473.911987,585.876221 440.110962,584.303406 417.771149,564.903076 
	C394.465271,544.663757 388.122894,512.268921 402.016846,484.444000 
	C402.314148,483.848663 402.590515,483.242920 403.247162,482.131165 
	C409.798004,470.549835 419.127350,462.881836 429.931793,456.584534 
	C451.689331,443.903229 463.611755,425.065125 464.655090,399.666656 
	C464.852356,394.864410 464.072205,390.486420 460.394989,386.884033 
	C456.239838,382.813446 452.643646,378.133545 448.272736,374.329468 
	C436.885559,364.418945 424.181946,356.686523 409.300537,352.384125 
	C408.376251,351.954041 407.618988,351.784119 406.552734,351.507965 
	C405.810699,351.366943 405.377655,351.332184 404.672882,351.044983 
	C402.215118,350.428619 400.029083,350.064636 397.546936,349.556030 
	C396.816345,349.371338 396.381836,349.331299 395.754364,349.102051 
	C394.688232,348.875031 393.815063,348.837280 392.657043,348.697968 
	C391.772217,348.571960 391.172272,348.547516 390.252869,348.297546 
	C381.763550,348.222595 373.593719,348.373138 365.083252,348.474731 
	C363.841034,348.567383 362.939514,348.708984 361.717651,348.748108 
	C357.944305,349.486542 354.491302,350.327515 350.667633,351.182617 
	C349.574493,351.355530 348.852020,351.514282 347.848328,351.584900 
	C346.928925,351.917480 346.290710,352.338165 345.391052,352.746338 
	C344.787292,352.797699 344.445038,352.861511 343.999329,352.825500 
	C343.547974,352.654602 343.341583,352.778473 343.006897,353.355408 
	C336.455017,356.549683 330.293457,359.808777 323.816925,362.222992 
	C321.899017,362.937927 318.739441,361.838867 316.756714,360.598999 
	C308.394348,355.369873 300.237518,349.828339 290.006805,348.936493 
	C280.972687,346.535400 279.477509,347.583618 278.800354,356.682709 
	C277.232697,377.747314 282.946594,396.137909 298.380341,411.137451 
	C299.841064,412.557068 300.815491,415.092896 300.939026,417.174408 
	C301.866028,432.793213 306.776581,446.724426 317.141113,458.675568 
	C330.795807,474.420502 331.068726,496.557617 318.490997,511.665466 
	C313.942902,517.128418 306.718994,520.363647 300.113434,524.641296 
	C298.350983,525.148193 297.191193,525.629211 296.031403,526.110168 
	C295.280487,526.132141 294.529602,526.154114 292.954529,526.153320 
	C288.406372,526.203491 284.682434,526.276306 280.958466,526.349060 
	C280.212891,526.262756 279.467346,526.176453 278.106140,525.883972 
	C275.310760,525.074768 273.131073,524.471680 270.951355,523.868530 
	C263.792572,521.833557 259.562408,516.066162 254.402863,510.935547 
	C251.749634,504.721497 249.387405,498.684204 246.914978,492.012604 
	C246.596558,491.145081 246.388321,490.911926 246.180084,490.678741 
	C246.180084,490.678741 246.243118,490.682587 246.244537,490.650787 
	C243.186752,470.425354 235.167862,452.448975 222.458496,436.454590 
	C214.504547,426.444794 204.186203,419.308960 193.491089,411.605469 
	C192.015961,410.778076 191.025620,410.335571 190.035278,409.893066 
	C190.035294,409.893036 189.847580,409.665070 189.516220,409.369446 
	C187.776764,408.427917 186.368668,407.781982 184.960571,407.136047 
	C184.349838,406.685883 183.739120,406.235687 182.680420,405.429108 
	C181.474274,404.763580 180.716080,404.454407 179.957901,404.145264 
	C179.957901,404.145264 179.716599,403.879028 179.423798,403.556030 
	C178.762741,403.107605 178.394501,402.982239 178.026245,402.856873 
	C161.628250,393.072601 147.896301,380.223785 136.157562,365.328186 
	C130.279999,357.870026 125.426857,349.604553 119.960434,341.061005 
	C119.188194,339.662903 118.565918,338.908051 117.943634,338.153198 
	C117.087692,336.337189 116.231750,334.521210 115.396469,332.095978 
	C112.100868,322.546295 108.814537,313.594482 105.441261,304.675568 
	C104.818916,303.030090 103.844772,301.517639 103.032997,299.943787 
	C102.030708,292.940887 101.028419,285.938019 100.079140,278.069214 
	C99.686897,274.815613 99.241653,272.427917 98.796417,270.040222 
	C98.828506,261.998047 98.860596,253.955887 99.071274,245.105255 
	C99.473137,241.854874 99.696426,239.412964 99.919716,236.971054 
	C103.169586,208.796982 112.961266,183.083786 129.029114,159.368668 
	C133.322006,153.857056 137.567734,148.690552 142.101883,143.152039 
	C142.673599,142.613464 142.775299,142.370789 142.695404,142.052002 
	C150.055115,135.290878 157.414810,128.529755 165.204773,121.445549 
	C165.993759,120.735161 166.352478,120.347847 166.711197,119.960526 
	C167.742310,119.228218 168.773422,118.495911 170.277008,117.412422 
	C171.444992,116.474586 172.140518,115.887917 172.836044,115.301254 
	C178.060272,112.236786 183.284515,109.172318 189.022858,105.916443 
	C189.896881,105.646263 190.073181,105.422646 190.065887,105.054192 
	C190.065887,105.054192 190.039597,105.021057 190.059052,105.036804 
z"/>
<path fill="#00D083" opacity="1.000000" stroke="none" 
	d="
M246.242523,490.890320 
	C246.388321,490.911926 246.596558,491.145081 246.763947,491.621765 
	C246.544144,491.632477 246.404755,491.377991 246.242523,490.890320 
z"/>
<path fill="#0ED983" opacity="1.000000" stroke="none" 
	d="
M308.839539,88.813034 
	C304.929993,88.394768 300.851807,87.705025 296.448425,86.809128 
	C299.147766,86.713875 302.172333,86.824783 305.601501,86.933838 
	C306.894409,87.468521 307.782684,88.005035 308.839539,88.813034 
z"/>
<path fill="#0ED983" opacity="1.000000" stroke="none" 
	d="
M322.876343,92.394943 
	C320.904877,92.147278 318.788666,91.610931 316.387665,90.855812 
	C318.312439,91.126785 320.522003,91.616531 322.876343,92.394943 
z"/>
<path fill="#00D37F" opacity="1.000000" stroke="none" 
	d="
M546.577881,379.532104 
	C545.842041,378.955139 545.418213,378.111908 544.981506,376.904785 
	C546.682983,376.183929 548.397278,375.827026 550.111633,375.470093 
	C550.255188,375.875153 550.398743,376.280243 550.542297,376.685303 
	C549.324829,377.545471 548.107361,378.405670 546.577881,379.532104 
z"/>
<path fill="#0ED983" opacity="1.000000" stroke="none" 
	d="
M361.932312,110.289627 
	C360.259308,109.696487 358.490753,108.757866 356.527161,107.537621 
	C358.167023,108.152046 360.001862,109.048088 361.932312,110.289627 
z"/>
<path fill="#0ED983" opacity="1.000000" stroke="none" 
	d="
M331.877899,95.637177 
	C330.069946,95.273071 328.133545,94.612267 326.006989,93.680931 
	C327.794373,94.053757 329.771912,94.697121 331.877899,95.637177 
z"/>
<path fill="#0ED983" opacity="1.000000" stroke="none" 
	d="
M338.858765,98.462021 
	C337.283234,98.104515 335.549957,97.439468 333.597900,96.492783 
	C335.153107,96.858925 336.927063,97.506706 338.858765,98.462021 
z"/>
<path fill="#0ED983" opacity="1.000000" stroke="none" 
	d="
M367.674805,113.992737 
	C366.416565,113.528419 365.025055,112.718048 363.441589,111.613083 
	C364.680237,112.094551 366.110901,112.870613 367.674805,113.992737 
z"/>
<path fill="#0ED983" opacity="1.000000" stroke="none" 
	d="
M352.866760,105.362808 
	C352.284454,105.325340 351.544983,105.010643 350.617004,104.445732 
	C351.188843,104.492203 351.949249,104.788887 352.866760,105.362808 
z"/>
<path fill="#0ED983" opacity="1.000000" stroke="none" 
	d="
M313.826294,90.005035 
	C313.246918,90.082642 312.465332,89.924789 311.468933,89.544708 
	C312.044098,89.471512 312.834106,89.620544 313.826294,90.005035 
z"/>
<path fill="#0ED983" opacity="1.000000" stroke="none" 
	d="
M344.865448,101.262466 
	C344.288788,101.247612 343.545837,100.969635 342.619843,100.442909 
	C343.190918,100.462555 343.945038,100.730957 344.865448,101.262466 
z"/>
<path fill="#0ED983" opacity="1.000000" stroke="none" 
	d="
M369.891296,115.499603 
	C369.319794,115.454697 368.626404,115.133423 367.812103,114.540230 
	C368.383942,114.586632 369.076660,114.904938 369.891296,115.499603 
z"/>
<path fill="#0ED983" opacity="1.000000" stroke="none" 
	d="
M376.855408,120.748795 
	C376.258911,120.621330 375.542267,120.179588 374.674072,119.453049 
	C375.260071,119.590332 375.997650,120.012428 376.855408,120.748795 
z"/>
<path fill="#00D37F" opacity="1.000000" stroke="none" 
	d="
M543.901550,373.799835 
	C543.576111,373.604950 543.185852,373.113983 542.845032,372.298889 
	C543.208557,372.484436 543.522644,372.994110 543.901550,373.799835 
z"/>
<path fill="#0ED983" opacity="1.000000" stroke="none" 
	d="
M355.815063,106.909622 
	C355.439789,106.941116 354.861328,106.751587 354.129944,106.286667 
	C354.521973,106.237045 355.066925,106.462830 355.815063,106.909622 
z"/>
<path fill="#0ED983" opacity="1.000000" stroke="none" 
	d="
M346.853882,102.467781 
	C346.967621,102.617935 346.537781,102.647339 346.537781,102.647339 
	C346.537781,102.647339 346.188965,102.394424 346.132874,102.186386 
	C346.331848,102.025063 346.552979,102.138161 346.853882,102.467781 
z"/>
<path fill="#00D37F" opacity="1.000000" stroke="none" 
	d="
M545.028076,376.299377 
	C544.838989,376.284332 544.509644,375.997864 544.194397,375.368713 
	C544.434937,375.359985 544.661377,375.693939 545.028076,376.299377 
z"/>
<path fill="#0ED983" opacity="1.000000" stroke="none" 
	d="
M372.783112,117.915588 
	C372.610962,117.967918 372.277008,117.807053 371.844513,117.371735 
	C372.037750,117.298988 372.329529,117.500679 372.783112,117.915588 
z"/>
<path fill="#02D281" opacity="1.000000" stroke="none" 
	d="
M348.129517,351.673035 
	C348.852020,351.514282 349.574493,351.355530 350.959351,351.332214 
	C355.093781,350.595306 358.565887,349.722961 362.037964,348.850616 
	C362.939514,348.708984 363.841034,348.567383 365.572754,348.627899 
	C374.459412,348.727722 382.515869,348.625397 390.572357,348.523071 
	C391.172272,348.547516 391.772217,348.571960 392.851562,348.910095 
	C394.203125,349.246277 395.075226,349.268799 395.947357,349.291290 
	C396.381836,349.331299 396.816345,349.371338 397.751038,349.793518 
	C400.482391,350.549530 402.713501,350.923462 404.944641,351.297394 
	C405.377655,351.332184 405.810699,351.366943 406.736084,351.746765 
	C407.974792,352.276001 408.721191,352.460144 409.467560,352.644287 
	C424.181946,356.686523 436.885559,364.418945 448.272736,374.329468 
	C452.643646,378.133545 456.239838,382.813446 460.394989,386.884033 
	C464.072205,390.486420 464.852356,394.864410 464.655090,399.666656 
	C463.611755,425.065125 451.689331,443.903229 429.931793,456.584534 
	C419.127350,462.881836 409.798004,470.549835 403.311401,481.778809 
	C403.130280,474.402924 402.195770,473.045746 397.853363,464.432373 
	C396.194427,461.141754 393.675873,459.792389 391.407562,457.583954 
	C386.173798,452.488251 381.760071,446.560089 376.666748,441.305939 
	C374.328491,438.893829 370.883087,437.574005 368.454071,435.226685 
	C364.247253,431.161407 360.460724,426.663208 356.457397,422.384491 
	C354.648560,420.451233 352.762238,418.588867 350.875397,416.730530 
	C348.573029,414.463013 346.261566,412.203247 343.901184,409.996582 
	C341.781982,408.015442 338.746948,406.509247 337.605530,404.090546 
	C335.123749,398.831360 330.599335,396.509186 326.284790,393.294159 
	C321.497742,389.726990 318.198090,384.180237 314.174377,379.561951 
	C313.017792,378.234436 311.682526,377.023193 310.273743,375.965790 
	C308.853790,374.900055 306.436676,374.442169 305.855438,373.108307 
	C303.685577,368.129059 298.852814,365.962921 295.507324,362.291595 
	C293.071991,359.619049 291.197906,356.435089 288.617035,352.843842 
	C288.810852,352.333801 289.326385,350.976898 289.924377,349.278259 
	C300.237518,349.828339 308.394348,355.369873 316.756714,360.598999 
	C318.739441,361.838867 321.899017,362.937927 323.816925,362.222992 
	C330.293457,359.808777 336.455017,356.549683 343.223083,353.359070 
	C343.709198,353.104553 344.102753,352.925354 344.102753,352.925354 
	C344.445038,352.861511 344.787292,352.797699 345.679871,352.800812 
	C346.863281,352.469482 347.496399,352.071259 348.129517,351.673035 
M379.446747,409.519348 
	C380.330963,409.139191 381.215149,408.759033 382.797546,408.137604 
	C383.532135,408.092194 384.266693,408.046753 385.353119,408.328857 
	C385.924438,407.958252 386.495758,407.587646 387.732941,406.878052 
	C395.947662,404.320068 402.119080,398.960022 407.260132,392.331024 
	C411.236511,387.203827 410.902710,386.120056 404.899078,384.036560 
	C395.136078,380.648468 385.271851,380.507294 375.827209,384.813934 
	C367.037689,388.821930 358.740356,393.712433 355.655609,404.509491 
	C356.325348,404.817566 356.995087,405.125641 358.273682,405.514923 
	C359.200836,405.945801 360.127960,406.376678 361.373505,407.340057 
	C362.577698,407.587189 363.781891,407.834320 365.724945,408.027466 
	C366.443970,408.181915 367.162964,408.336365 368.091888,408.998657 
	C369.047180,409.068787 370.002472,409.138947 371.847473,409.080780 
	C374.243561,409.104248 376.639648,409.127716 379.446747,409.519348 
z"/>
<path fill="#34D9A4" opacity="1.000000" stroke="none" 
	d="
M281.208008,526.624268 
	C284.682434,526.276306 288.406372,526.203491 292.585938,526.229370 
	C289.180206,526.518433 285.318848,526.708923 281.208008,526.624268 
z"/>
<path fill="#34D9A4" opacity="1.000000" stroke="none" 
	d="
M271.111633,524.183716 
	C273.131073,524.471680 275.310760,525.074768 277.730469,525.906555 
	C275.737579,525.589783 273.504730,525.044312 271.111633,524.183716 
z"/>
<path fill="#34D9A4" opacity="1.000000" stroke="none" 
	d="
M296.265381,526.268066 
	C297.191193,525.629211 298.350983,525.148193 299.768738,524.755249 
	C298.850952,525.370850 297.675171,525.898438 296.265381,526.268066 
z"/>
<path fill="#39DAA3" opacity="1.000000" stroke="none" 
	d="
M102.984924,300.338562 
	C103.844772,301.517639 104.818916,303.030090 105.441261,304.675568 
	C108.814537,313.594482 112.100868,322.546295 115.309631,331.764099 
	C111.829803,324.333954 108.358673,316.667389 105.140884,308.895874 
	C104.071678,306.313568 103.652962,303.461884 102.984924,300.338562 
z"/>
<path fill="#41DDA7" opacity="1.000000" stroke="none" 
	d="
M98.607849,270.335388 
	C99.241653,272.427917 99.686897,274.815613 100.024994,277.616089 
	C99.418327,275.562775 98.918808,273.096680 98.607849,270.335388 
z"/>
<path fill="#41DDA7" opacity="1.000000" stroke="none" 
	d="
M99.726456,237.267029 
	C99.696426,239.412964 99.473137,241.854874 99.046593,244.635574 
	C99.073288,242.503906 99.303246,240.033463 99.726456,237.267029 
z"/>
<path fill="#32D89F" opacity="1.000000" stroke="none" 
	d="
M185.073395,407.467773 
	C186.368668,407.781982 187.776764,408.427917 189.369186,409.355835 
	C188.097748,409.025085 186.641998,408.412292 185.073395,407.467773 
z"/>
<path fill="#39DAA3" opacity="1.000000" stroke="none" 
	d="
M117.929810,338.465912 
	C118.565918,338.908051 119.188194,339.662903 119.824287,340.726685 
	C119.197388,340.283295 118.556679,339.530945 117.929810,338.465912 
z"/>
<path fill="#32D89F" opacity="1.000000" stroke="none" 
	d="
M190.152206,410.223541 
	C191.025620,410.335571 192.015961,410.778076 193.170593,411.509186 
	C192.312973,411.383209 191.291046,410.968628 190.152206,410.223541 
z"/>
<path fill="#32D89F" opacity="1.000000" stroke="none" 
	d="
M180.085541,404.458771 
	C180.716080,404.454407 181.474274,404.763580 182.412842,405.330627 
	C181.799881,405.316467 181.006546,405.044373 180.085541,404.458771 
z"/>
<path fill="#32D89F" opacity="1.000000" stroke="none" 
	d="
M178.193054,403.086334 
	C178.394501,402.982239 178.762741,403.107605 179.248978,403.514587 
	C179.031281,403.636047 178.695572,403.475922 178.193054,403.086334 
z"/>
<path fill="#01D57E" opacity="1.000000" stroke="none" 
	d="
M172.467407,115.324104 
	C172.140518,115.887917 171.444992,116.474586 170.406219,117.119743 
	C170.741562,116.567810 171.420166,115.957382 172.467407,115.324104 
z"/>
<path fill="#01D57E" opacity="1.000000" stroke="none" 
	d="
M166.469635,120.057068 
	C166.352478,120.347847 165.993759,120.735161 165.356598,121.151337 
	C165.461472,120.837997 165.844772,120.495796 166.469635,120.057068 
z"/>
<path fill="#01D57E" opacity="1.000000" stroke="none" 
	d="
M189.891754,105.136932 
	C190.073181,105.422646 189.896881,105.646263 189.309738,105.688858 
	C189.278687,105.485580 189.490402,105.341248 189.891754,105.136932 
z"/>
<path fill="#00D083" opacity="1.000000" stroke="none" 
	d="
M142.560089,142.171677 
	C142.775299,142.370789 142.673599,142.613464 142.183197,142.817871 
	C142.103836,142.650238 142.253387,142.462128 142.560089,142.171677 
z"/>
<path fill="#0ED983" opacity="1.000000" stroke="none" 
	d="
M290.783112,85.885193 
	C277.940399,86.166634 264.868988,86.211739 251.390411,86.178482 
	C252.978790,85.413658 254.961731,84.180603 256.972046,84.134239 
	C266.269958,83.919785 275.577026,83.946678 284.877045,84.105721 
	C286.777740,84.138222 288.662384,85.110039 290.783112,85.885193 
z"/>
<path fill="#0ED983" opacity="1.000000" stroke="none" 
	d="
M245.536331,86.455322 
	C241.781418,87.492516 237.695267,88.377434 233.290695,89.186325 
	C237.049881,88.174545 241.127487,87.238792 245.536331,86.455322 
z"/>
<path fill="#0ED983" opacity="1.000000" stroke="none" 
	d="
M230.307983,89.244713 
	C226.774261,90.588432 222.795563,91.872208 218.405563,93.138603 
	C221.950516,91.809074 225.906754,90.496918 230.307983,89.244713 
z"/>
<path fill="#0ED983" opacity="1.000000" stroke="none" 
	d="
M214.779114,94.049530 
	C213.673248,94.718002 212.196152,95.359161 210.363586,95.985519 
	C211.474686,95.321213 212.941299,94.671715 214.779114,94.049530 
z"/>
<path fill="#0ED983" opacity="1.000000" stroke="none" 
	d="
M203.988617,98.121307 
	C203.432846,98.665611 202.532013,99.194473 201.314407,99.770561 
	C201.879608,99.247147 202.761597,98.676514 203.988617,98.121307 
z"/>
<path fill="#0ED983" opacity="1.000000" stroke="none" 
	d="
M208.376251,96.250259 
	C207.992279,96.688202 207.292587,97.104012 206.281006,97.458244 
	C206.666260,97.007149 207.363403,96.617638 208.376251,96.250259 
z"/>
<path fill="#3CDEA2" opacity="1.000000" stroke="none" 
	d="
M390.252869,348.297546 
	C382.515869,348.625397 374.459412,348.727722 365.913422,348.676849 
	C373.593719,348.373138 381.763550,348.222595 390.252869,348.297546 
z"/>
<path fill="#3CDEA2" opacity="1.000000" stroke="none" 
	d="
M361.717651,348.748108 
	C358.565887,349.722961 355.093781,350.595306 351.329987,351.318054 
	C354.491302,350.327515 357.944305,349.486542 361.717651,348.748108 
z"/>
<path fill="#3CDEA2" opacity="1.000000" stroke="none" 
	d="
M404.672882,351.044983 
	C402.713501,350.923462 400.482391,350.549530 398.047180,349.938171 
	C400.029083,350.064636 402.215118,350.428619 404.672882,351.044983 
z"/>
<path fill="#3CDEA2" opacity="1.000000" stroke="none" 
	d="
M395.754364,349.102051 
	C395.075226,349.268799 394.203125,349.246277 393.136475,349.011658 
	C393.815063,348.837280 394.688232,348.875031 395.754364,349.102051 
z"/>
<path fill="#3CDEA2" opacity="1.000000" stroke="none" 
	d="
M347.848328,351.584900 
	C347.496399,352.071259 346.863281,352.469482 345.941345,352.813293 
	C346.290710,352.338165 346.928925,351.917480 347.848328,351.584900 
z"/>
<path fill="#3CDEA2" opacity="1.000000" stroke="none" 
	d="
M409.300537,352.384125 
	C408.721191,352.460144 407.974792,352.276001 407.045105,351.853027 
	C407.618988,351.784119 408.376251,351.954041 409.300537,352.384125 
z"/>
<path fill="#3CDEA2" opacity="1.000000" stroke="none" 
	d="
M343.999329,352.825500 
	C344.102753,352.925354 343.709198,353.104553 343.492981,353.100891 
	C343.341583,352.778473 343.547974,352.654602 343.999329,352.825500 
z"/>
<path fill="#F2FCF8" opacity="1.000000" stroke="none" 
	d="
M367.881989,408.490845 
	C367.162964,408.336365 366.443970,408.181915 365.086578,407.821350 
	C363.317169,407.346008 362.186127,407.076813 361.055084,406.807587 
	C360.127960,406.376678 359.200836,405.945801 357.817108,405.219360 
	C356.860321,404.626190 356.360107,404.328613 355.859894,404.031036 
	C358.740356,393.712433 367.037689,388.821930 375.827209,384.813934 
	C385.271851,380.507294 395.136078,380.648468 404.899078,384.036560 
	C410.902710,386.120056 411.236511,387.203827 407.260132,392.331024 
	C402.119080,398.960022 395.947662,404.320068 387.107635,407.009583 
	C385.988647,407.427856 385.494965,407.714600 385.001282,408.001343 
	C384.266693,408.046753 383.532135,408.092194 382.123291,408.184204 
	C380.644623,408.537598 379.840179,408.844391 379.035736,409.151184 
	C376.639648,409.127716 374.243561,409.104248 371.153168,408.927856 
	C369.599915,408.680237 368.740936,408.585541 367.881989,408.490845 
z"/>
<path fill="#38DB9E" opacity="1.000000" stroke="none" 
	d="
M361.214294,407.073822 
	C362.186127,407.076813 363.317169,407.346008 364.717163,407.848358 
	C363.781891,407.834320 362.577698,407.587189 361.214294,407.073822 
z"/>
<path fill="#38DB9E" opacity="1.000000" stroke="none" 
	d="
M367.986938,408.744751 
	C368.740936,408.585541 369.599915,408.680237 370.708313,408.992004 
	C370.002472,409.138947 369.047180,409.068787 367.986938,408.744751 
z"/>
<path fill="#38DB9E" opacity="1.000000" stroke="none" 
	d="
M379.241241,409.335266 
	C379.840179,408.844391 380.644623,408.537598 381.774231,408.304810 
	C381.215149,408.759033 380.330963,409.139191 379.241241,409.335266 
z"/>
<path fill="#38DB9E" opacity="1.000000" stroke="none" 
	d="
M385.177185,408.165100 
	C385.494965,407.714600 385.988647,407.427856 386.774719,407.179047 
	C386.495758,407.587646 385.924438,407.958252 385.177185,408.165100 
z"/>
<path fill="#38DB9E" opacity="1.000000" stroke="none" 
	d="
M355.757751,404.270264 
	C356.360107,404.328613 356.860321,404.626190 357.512695,405.178741 
	C356.995087,405.125641 356.325348,404.817566 355.757751,404.270264 
z"/>
</svg>