<svg xmlns="http://www.w3.org/2000/svg" width="586" height="487" viewBox="0 0 586 487" fill="none"><path d="M418.75 143.09C403.44 93.14 271.17 28.67 166.67 108.82C118.06 146.09 133.15 172.85 105.17 225.66C88.49 257.13 58.94 287.14 60.91 323.28C62.61 354.48 78.93 382.69 101.01 396.83C150.67 428.65 229.35 434.05 270.48 340.14C311.61 246.24 458.20 271.93 418.75 143.09Z" fill="url(#paint0_linear_280_1217)"/><path d="M522.67 265.10C501.46 243.35 469.11 248.25 420.09 266.60C383.23 280.40 349.48 292.49 317.16 323.26C294.53 344.80 278.79 369.94 268.57 393.01C257.49 418.00 240.62 447.65 258.21 467.91C282.39 495.73 379.80 498.52 455.56 430.98C538.79 356.77 543.40 286.36 522.67 265.10Z" fill="url(#paint1_linear_280_1217)"/><path fill-rule="evenodd" clip-rule="evenodd" d="M218.19 223.83C172.63 223.83 135.69 186.89 135.69 141.33C135.69 95.77 172.63 58.83 218.19 58.83C263.76 58.83 300.69 95.77 300.69 141.33C300.69 186.89 263.76 223.83 218.19 223.83ZM218.19 441.83C172.63 441.83 135.69 405.11 135.69 359.83C135.69 314.54 172.63 277.83 218.19 277.83C263.76 277.83 300.69 314.54 300.69 359.83C300.69 405.11 263.76 441.83 218.19 441.83ZM451.19 223.83C405.63 223.83 368.69 186.89 368.69 141.33C368.69 95.77 405.63 58.83 451.19 58.83C496.76 58.83 533.70 95.77 533.70 141.33C533.70 186.89 496.76 223.83 451.19 223.83Z" fill="#2DA44A"/><path d="M245.69 128.83L211.33 163.83L190.69 142.83M245.69 346.83L211.33 380.83L190.69 360.43M478.69 128.83L444.33 163.83L423.69 142.83" stroke="white" stroke-width="15" stroke-linecap="round" stroke-linejoin="round"/><path fill-rule="evenodd" clip-rule="evenodd" d="M372.07 420.28L320.69 256.09C315.26 238.76 332.99 223.26 349.45 230.94L502.65 302.47C520.79 310.95 517.75 337.67 498.15 341.83L435.08 355.17L411.69 421.01C404.95 439.92 378.07 439.43 372.07 420.28Z" fill="#2DA44A"/><path d="M13.83 397.20C31.58 415.26 64.76 411.45 64.76 411.45C64.76 411.45 69.15 378.36 51.39 360.32C33.64 342.26 0.48 346.05 0.48 346.05C0.48 346.05 -3.91 379.14 13.83 397.20Z" fill="url(#paint2_linear_280_1217)"/><path d="M452.94 39.19C436.12 48.78 412.50 39.07 412.50 39.07C412.50 39.07 416.16 13.82 432.99 4.24C449.81 -5.36 473.41 4.34 473.41 4.34C473.41 4.34 469.75 29.60 452.94 39.19Z" fill="url(#paint3_linear_280_1217)"/><path d="M151.34 76.70C134.06 94.29 101.74 90.58 101.74 90.58C101.74 90.58 97.46 58.35 114.76 40.77C132.04 23.18 164.35 26.88 164.35 26.88C164.35 26.88 168.63 59.11 151.34 76.70Z" fill="url(#paint4_linear_280_1217)"/><path d="M29.70 240.83C37.98 240.83 44.70 247.77 44.70 256.33C44.70 264.89 37.98 271.83 29.70 271.83C21.41 271.83 14.70 264.89 14.70 256.33C14.70 247.77 21.41 240.83 29.70 240.83Z" fill="#E1E4E5"/><path d="M472.19 371.92C485.17 371.92 495.69 382.44 495.69 395.42C495.69 408.40 485.17 418.92 472.19 418.92C459.22 418.92 448.69 408.40 448.69 395.42C448.69 382.44 459.22 371.92 472.19 371.92Z" fill="#2DA44A"/><path d="M91.70 183.92C98.32 183.92 103.69 178.55 103.69 171.92C103.69 165.29 98.32 159.92 91.70 159.92C85.07 159.92 79.70 165.29 79.70 171.92C79.70 178.55 85.07 183.92 91.70 183.92Z" fill="#2DA44A"/><path d="M155.19 266.83C152.16 266.83 149.69 264.36 149.69 261.33C149.69 258.29 152.16 255.83 155.19 255.83C158.23 255.83 160.69 258.29 160.69 261.33C160.69 264.36 158.23 266.83 155.19 266.83Z" fill="#E1E4E5"/><path d="M568.20 318.92C577.86 318.92 585.70 311.31 585.70 301.92C585.70 292.53 577.86 284.92 568.20 284.92C558.53 284.92 550.70 292.53 550.70 301.92C550.70 311.31 558.53 318.92 568.20 318.92Z" fill="#E1E4E5"/><path d="M331.19 453.92C337.55 453.92 342.69 448.77 342.69 442.42C342.69 436.07 337.55 430.92 331.19 430.92C324.84 430.92 319.69 436.07 319.69 442.42C319.69 448.77 324.84 453.92 331.19 453.92Z" fill="#E1E4E5"/><path d="M244.19 52.83C247.23 52.83 249.69 50.14 249.69 46.83C249.69 43.51 247.23 40.83 244.19 40.83C241.16 40.83 238.69 43.51 238.69 46.83C238.69 50.14 241.16 52.83 244.19 52.83Z" fill="#E1E4E5"/><path d="M502.69 229.33C502.69 232.36 505.38 234.83 508.69 234.83C512.01 234.83 514.70 232.36 514.70 229.33C514.70 226.29 512.01 223.83 508.69 223.83C505.38 223.83 502.69 226.29 502.69 229.33Z" fill="#E1E4E5"/><path d="M550.70 154.83C553.46 154.83 555.70 152.81 555.70 150.33C555.70 147.84 553.46 145.83 550.70 145.83C547.93 145.83 545.70 147.84 545.70 150.33C545.70 152.81 547.93 154.83 550.70 154.83Z" fill="#E1E4E5"/><path d="M55.20 205.83C58.23 205.83 60.70 203.81 60.70 201.33C60.70 198.84 58.23 196.83 55.20 196.83C52.16 196.83 49.70 198.84 49.70 201.33C49.70 203.81 52.16 205.83 55.20 205.83Z" fill="#E1E4E5"/><path d="M362.00 56.57C360.38 62.63 363.98 68.86 370.04 70.48C376.10 72.10 382.32 68.51 383.95 62.45C385.57 56.39 381.97 50.16 375.92 48.54C369.86 46.91 363.63 50.51 362.00 56.57Z" fill="#E1E4E5"/><path d="M75.27 109.92H75.12C74.22 121.81 64.70 121.99 64.70 121.99C64.70 121.99 75.20 122.18 75.20 135.92C75.20 122.18 85.70 121.99 85.70 121.99C85.70 121.99 76.18 121.81 75.27 109.92ZM545.82 67.92H545.58C544.11 89.41 528.70 89.74 528.70 89.74C528.70 89.74 545.70 90.09 545.70 114.92C545.70 90.09 562.70 89.74 562.70 89.74C562.70 89.74 547.28 89.41 545.82 67.92Z" fill="#E1E4E5"/><defs><linearGradient id="paint0_linear_280_1217" x1="196.64" y1="-108.50" x2="313.89" y2="765.26" gradientUnits="userSpaceOnUse"><stop stop-color="white"/><stop offset="1" stop-color="#EEEEEE"/></linearGradient><linearGradient id="paint1_linear_280_1217" x1="381.60" y1="125.10" x2="407.68" y2="733.79" gradientUnits="userSpaceOnUse"><stop stop-color="white"/><stop offset="1" stop-color="#EEEEEE"/></linearGradient><linearGradient id="paint2_linear_280_1217" x1="84.63" y1="458.88" x2="-43.65" y2="257.81" gradientUnits="userSpaceOnUse"><stop stop-color="white"/><stop offset="1" stop-color="#EEEEEE"/></linearGradient><linearGradient id="paint3_linear_280_1217" x1="388.01" y1="69.84" x2="524.26" y2="-51.40" gradientUnits="userSpaceOnUse"><stop stop-color="white"/><stop offset="1" stop-color="#EEEEEE"/></linearGradient><linearGradient id="paint4_linear_280_1217" x1="82.38" y1="136.79" x2="207.33" y2="-59.08" gradientUnits="userSpaceOnUse"><stop stop-color="white"/><stop offset="1" stop-color="#EEEEEE"/></linearGradient></defs></svg>