<svg version="1.1" xmlns="http://www.w3.org/2000/svg" xmlns:xlink="http://www.w3.org/1999/xlink" width="723.39156" height="884.12159" viewBox="0,0,723.39156,884.12159"><g transform="translate(123.94803,259.30812)"><g data-paper-data="{&quot;isPaintingLayer&quot;:true}" fill="#1d9bf0" fill-rule="nonzero" stroke="none" stroke-width="1" stroke-linecap="butt" stroke-linejoin="miter" stroke-miterlimit="10" stroke-dasharray="" stroke-dashoffset="0" style="mix-blend-mode: normal"><path d="M-85.86531,-259.30812h1.93197c1.29344,1.21157 2.71786,2.24305 4.25688,3.12717c87.11872,43.32196 174.13921,86.82401 261.25793,130.14597c10.93691,5.63218 22.82344,10.11828 31.82838,18.79577c13.34369,12.93437 23.2655,30.56769 24.01864,49.41257c2.2103,-19.51617 11.7228,-38.11546 26.54002,-51.06621c8.46465,-7.62964 19.36881,-11.5427 29.30699,-16.83106c64.39352,-31.92661 128.62332,-64.2298 193.03321,-96.12366c24.77178,-12.54143 49.82189,-24.57531 74.41357,-37.46056h0.57304c0.14735,37.6734 -0.01637,75.36318 0.08186,113.03658c1.39167,26.78561 -14.1132,53.14553 -36.93664,66.70206c33.77672,29.17601 56.86212,70.53326 63.37842,114.72296c6.13973,40.24391 -1.16246,82.41978 -20.71137,118.14484c-13.60565,25.03374 -32.90897,46.97305 -56.04349,63.59126c-1.50628,1.40805 -4.24051,2.45589 -3.61835,5.04277c-0.13098,13.63839 0.03275,27.27679 -0.01637,40.91518c30.64955,-15.29203 61.2991,-30.56769 92.01414,-45.71236c-0.13098,43.14186 0.09824,86.28372 -0.09824,129.42558c-1.9156,35.41398 -22.26677,69.22345 -51.99945,88.3303c-13.47467,7.62964 -27.63699,13.98222 -41.38999,21.10431c-4.28963,26.29443 -14.55526,52.04857 -32.10671,72.33424c-16.96204,19.94185 -40.68597,33.40015 -65.8998,39.85096c-18.10812,4.81355 -36.90389,6.15611 -55.56868,6.05787c-36.36359,0.50755 -74.31533,10.62583 -101.33016,36.06889c-4.35512,4.55159 -9.88906,8.49739 -12.27947,14.50614h-1.81736c-5.48483,-9.16867 -13.94947,-16.09429 -22.23402,-22.62696c-27.45689,-20.69499 -62.62528,-28.06267 -96.43474,-28.01356c-32.43416,0.13098 -66.03078,-6.35258 -93.20934,-24.90276c-24.55893,-16.48723 -41.78293,-42.38872 -50.2312,-70.51688c-2.52138,-7.35131 -3.45462,-15.11193 -5.46846,-22.57785c-9.10318,-5.41934 -18.9595,-9.46338 -28.35738,-14.35879c-36.24899,-16.25801 -61.28272,-53.55485 -64.96656,-92.83277v-132.06157c30.53494,15.55399 61.31547,30.63318 91.99776,45.87609c0.04912,-14.32604 -0.13098,-28.63572 0.09824,-42.96176c-19.84362,-14.19506 -37.5588,-31.55004 -50.96797,-52.01582c-26.1962,-38.9341 -36.78928,-87.88824 -29.25788,-134.19001c6.76189,-43.63304 29.79817,-84.25351 63.06734,-113.18394c-22.80706,-13.63839 -38.24645,-39.98194 -36.88752,-66.76755c0.04912,-37.65703 0,-75.33043 0.03275,-112.98747M55.51228,-68.0104c-39.7691,5.94326 -76.03446,31.07524 -95.66523,66.12902c-16.51998,28.88131 -21.38264,64.09882 -13.47467,96.402c7.00748,29.25788 24.4607,55.76515 48.33198,74.05337c22.56147,17.50233 50.90248,27.34228 79.45633,27.62061c26.47453,0.44206 53.01455,-7.28582 75.06847,-21.92294c24.49344,-16.07791 43.48568,-40.39126 52.91631,-68.14285c10.42936,-30.27298 9.31602,-64.32803 -3.14354,-93.81512c-11.19887,-26.99845 -31.66465,-49.95287 -57.04222,-64.4099c-25.90149,-14.89909 -56.92761,-20.49852 -86.44744,-15.91419M379.75569,-68.09226c-38.29556,5.48483 -73.39846,28.83219 -93.63503,61.74116c-17.66606,28.19366 -23.87128,63.19832 -17.24037,95.77984c5.81228,29.48709 22.16853,56.69839 45.30305,75.85436c21.28441,17.86253 48.31561,28.75032 76.05083,30.60043c28.57023,2.06295 57.77898,-5.37022 81.7485,-21.05519c25.45943,-16.33988 44.99197,-41.65195 54.34073,-70.41865c9.82357,-29.83092 8.51376,-63.18195 -3.71659,-92.11237c-12.11574,-29.11052 -34.97192,-53.58759 -63.18195,-67.65167c-24.37883,-12.41045 -52.65435,-16.79831 -79.66918,-12.7379M223.59362,160.14209c-13.83487,5.74679 -23.31461,20.87509 -21.57912,35.87241c1.16246,7.5969 4.43698,14.6535 7.64601,21.57912c8.0717,16.47086 17.84616,32.04122 28.07905,47.23501c12.70515,-19.02499 25.24658,-38.47566 33.48201,-59.9238c5.19012,-12.29584 1.80099,-27.16218 -7.48229,-36.56007c-9.97093,-10.72407 -26.76924,-14.1132 -40.14567,-8.20268M-85.89806,336.65533c-1.7355,29.79817 16.91292,59.69458 44.36981,71.401c93.07836,46.36727 186.17309,92.68541 279.20232,139.18366c93.56954,-46.49825 187.00809,-93.32395 280.61037,-139.7567c26.80198,-11.98476 44.92647,-41.52097 43.07637,-70.87708c-0.08186,-19.36881 0.09824,-38.754 -0.09824,-58.12281c-93.30757,46.41638 -186.53328,93.01287 -279.84086,139.42925c-24.70629,10.42936 -40.45675,35.57771 -44.27157,61.49557c-0.22922,-18.09175 -10.05279,-34.97192 -22.43049,-47.6607c-8.31729,-8.89033 -19.89274,-13.17996 -30.45308,-18.64842c-89.95119,-45.00834 -180.04973,-89.7056 -270.01728,-134.68119c-0.29471,19.40156 -0.03275,38.81949 -0.14735,58.23742z"/><path d="M60.22759,62.83959c24.60805,-7.98984 53.60396,4.71532 64.37715,28.2264c10.93691,21.74284 4.38786,50.31307 -14.86634,65.17941c-19.85999,16.61821 -51.68837,15.53762 -70.36953,-2.3904c-18.45195,-16.30713 -22.85618,-45.79422 -9.95455,-66.76755c6.74552,-11.59182 17.99351,-20.38391 30.81327,-24.24785z"/><path d="M384.42188,62.6595c21.61186,-6.59817 46.62923,2.14481 59.36713,20.8096c11.9029,16.5036 12.96712,39.93283 2.68511,57.48428c-11.05152,19.90911 -35.52859,30.99337 -57.77898,26.06521c-23.95315,-4.46973 -42.86352,-26.93296 -43.06,-51.3118c-1.03148,-23.82217 15.86507,-46.71109 38.78674,-53.0473z"/></g></g></svg>