<svg xmlns="http://www.w3.org/2000/svg" width="592" height="387" viewBox="0 0 592 387" fill="none"><path d="M87.86 186.12C75.65 239.16 161.41 366.23 297.45 348.36C360.72 340.04 361.04 308.05 413.80 274.98C445.25 255.26 487.54 243.58 504.59 209.94C519.30 180.91 519.27 146.96 506.72 122.69C478.49 68.12 410.31 22.26 324.29 85.56C238.26 148.86 119.37 49.32 87.86 186.12Z" fill="url(#paint0_linear_280_1220)"/><path d="M349.36 346.63C392.39 311.24 436.9 273.30 485.00 261.62C534.61 249.57 538.69 266.28 535.47 290.26C532.26 314.23 504.20 365.56 436.76 380.97C369.32 396.39 309.11 379.76 349.36 346.63Z" fill="url(#paint1_linear_280_1220)"/><path d="M228.71 386.49H468.20C474.89 386.49 480.30 381.08 480.30 374.39V294.63C480.30 287.94 474.89 282.53 468.20 282.53H228.71C222.01 282.53 216.60 287.94 216.60 294.63V374.43C216.60 381.08 222.01 386.49 228.71 386.49Z" fill="#2DA44A"/><path d="M434.23 322.38H258.98M434.15 349.66H335.27" stroke="white" stroke-width="9.49" stroke-miterlimit="10" stroke-linecap="round" stroke-linejoin="round"/><path d="M451.10 386.35V339.30L511.06 386.35H451.10Z" fill="#2DA44A"/><path fill-rule="evenodd" clip-rule="evenodd" d="M591.43 376.98V381.68C591.43 384.28 589.35 386.39 586.78 386.39H531.09C528.52 386.39 526.44 384.28 526.44 381.68V376.90C526.44 362.67 542.50 353.43 558.93 353.43C575.38 353.43 591.43 362.68 591.43 376.90M570.59 312.11C577.02 318.54 577.02 328.98 570.59 335.41C564.15 341.85 553.72 341.85 547.28 335.41C540.85 328.98 540.85 318.54 547.28 312.11C553.72 305.67 564.15 305.67 570.59 312.11Z" fill="#2DA44A"/><path d="M228.71 103.96H468.20C474.89 103.96 480.30 98.56 480.30 91.86V12.10C480.3 10.51 479.99 8.94 479.38 7.47C478.77 6.00 477.88 4.66 476.76 3.54C475.63 2.42 474.30 1.52 472.83 0.92C471.36 0.31 469.79 -0.00 468.20 7.00e-06H228.71C222.01 7.00e-06 216.60 5.41 216.60 12.10V91.90C216.60 98.56 222.01 103.96 228.71 103.96Z" fill="#2DA44A"/><path d="M434.23 39.85H258.98M434.15 67.13H335.27" stroke="white" stroke-width="9.49" stroke-miterlimit="10" stroke-linecap="round" stroke-linejoin="round"/><path d="M451.10 103.82V56.77L511.06 103.82H451.10Z" fill="#2DA44A"/><path fill-rule="evenodd" clip-rule="evenodd" d="M591.43 94.45V99.15C591.43 101.75 589.35 103.86 586.78 103.86H531.09C528.52 103.86 526.44 101.75 526.44 99.15V94.38C526.44 80.14 542.50 70.90 558.93 70.90C575.38 70.90 591.43 80.15 591.43 94.38M570.59 29.58C577.02 36.01 577.02 46.45 570.59 52.88C564.15 59.32 553.72 59.32 547.28 52.88C540.85 46.45 540.85 36.01 547.28 29.58C553.72 23.14 564.15 23.14 570.59 29.58Z" fill="#2DA44A"/><path d="M362.72 245.23H123.23C116.54 245.23 111.13 239.82 111.13 233.13V153.36C111.13 151.77 111.44 150.20 112.05 148.73C112.65 147.26 113.55 145.93 114.67 144.80C115.79 143.68 117.13 142.79 118.60 142.18C120.06 141.57 121.64 141.26 123.23 141.26H362.72C369.41 141.26 374.82 146.67 374.82 153.36V233.16C374.82 239.82 369.41 245.23 362.72 245.23Z" fill="#2DA44A"/><path d="M157.20 181.11H332.44M157.27 208.39H256.16" stroke="white" stroke-width="9.49" stroke-miterlimit="10" stroke-linecap="round" stroke-linejoin="round"/><path d="M140.32 245.08V198.03L80.37 245.08H140.32Z" fill="#2DA44A"/><path fill-rule="evenodd" clip-rule="evenodd" d="M0 235.72V240.42C0 243.01 2.08 245.12 4.64 245.12H60.34C62.90 245.12 64.98 243.01 64.98 240.42V235.64C64.98 221.41 48.93 212.16 32.49 212.16C16.05 212.16 0 221.41 0 235.64M20.84 170.84C14.40 177.28 14.40 187.71 20.84 194.15C27.27 200.58 37.71 200.58 44.14 194.15C50.58 187.71 50.58 177.28 44.14 170.84C37.71 164.41 27.27 164.41 20.84 170.84Z" fill="#2DA44A"/><path fill-rule="evenodd" clip-rule="evenodd" d="M470.60 187.06H467.38C467.01 187.06 466.65 186.91 466.39 186.65C466.13 186.39 465.98 186.03 465.98 185.66V182.44C465.98 181.67 466.61 181.04 467.38 181.04H470.60C471.37 181.04 472 181.67 472 182.44V185.66C472.00 185.84 471.96 186.03 471.89 186.20C471.82 186.37 471.72 186.52 471.59 186.65C471.46 186.78 471.31 186.89 471.13 186.96C470.96 187.03 470.78 187.06 470.60 187.06ZM459.45 187.06H456.23C455.86 187.06 455.50 186.91 455.24 186.65C454.98 186.39 454.83 186.03 454.83 185.66V182.44C454.83 181.67 455.46 181.04 456.23 181.04H459.45C460.22 181.04 460.85 181.67 460.85 182.44V185.66C460.85 186.03 460.7 186.39 460.44 186.65C460.17 186.91 459.82 187.06 459.45 187.06ZM448.29 187.06H445.07C444.70 187.06 444.35 186.91 444.08 186.65C443.82 186.39 443.67 186.03 443.67 185.66V182.44C443.67 181.67 444.30 181.04 445.07 181.04H448.29C449.06 181.04 449.69 181.67 449.69 182.44V185.66C449.69 185.84 449.66 186.03 449.59 186.20C449.52 186.37 449.41 186.52 449.28 186.65C449.15 186.78 449.00 186.89 448.83 186.96C448.66 187.03 448.48 187.06 448.29 187.06ZM437.14 187.06H433.92C433.55 187.06 433.20 186.91 432.93 186.65C432.67 186.39 432.52 186.03 432.52 185.66V182.44C432.52 181.67 433.15 181.04 433.92 181.04H437.14C437.92 181.04 438.55 181.67 438.55 182.44V185.66C438.55 186.03 438.40 186.39 438.13 186.65C437.87 186.91 437.51 187.06 437.14 187.06ZM425.99 187.06H422.77C422.40 187.06 422.04 186.91 421.78 186.65C421.51 186.39 421.37 186.03 421.36 185.66V182.44C421.36 181.67 422.00 181.04 422.77 181.04H425.99C426.76 181.04 427.39 181.67 427.39 182.44V185.66C427.39 186.43 426.76 187.06 425.99 187.06ZM459.04 174.91H455.82C455.45 174.90 455.09 174.75 454.83 174.49C454.57 174.23 454.42 173.87 454.42 173.50V170.28C454.42 169.51 455.05 168.88 455.82 168.88H459.04C459.81 168.88 460.44 169.51 460.44 170.28V173.49C460.44 173.68 460.41 173.86 460.34 174.03C460.27 174.21 460.16 174.36 460.03 174.49C459.90 174.62 459.75 174.73 459.58 174.80C459.41 174.87 459.22 174.91 459.04 174.91ZM447.89 174.91H444.67C444.3 174.90 443.94 174.75 443.68 174.49C443.42 174.23 443.27 173.87 443.27 173.50V170.28C443.27 169.51 443.90 168.88 444.67 168.88H447.89C448.66 168.88 449.29 169.51 449.29 170.28V173.49C449.29 173.68 449.26 173.86 449.19 174.03C449.12 174.21 449.01 174.36 448.88 174.49C448.75 174.62 448.60 174.73 448.43 174.80C448.26 174.87 448.07 174.91 447.89 174.91ZM436.74 174.91H433.52C433.15 174.91 432.79 174.76 432.53 174.49C432.26 174.23 432.11 173.87 432.11 173.50V170.28C432.11 169.91 432.26 169.55 432.53 169.28C432.79 169.02 433.15 168.88 433.52 168.88H436.74C437.51 168.88 438.14 169.51 438.14 170.28V173.49C438.14 173.87 437.99 174.22 437.73 174.49C437.47 174.75 437.11 174.90 436.74 174.91ZM448.29 200.12H445.07C444.70 200.12 444.35 199.97 444.08 199.71C443.82 199.45 443.67 199.09 443.67 198.72V195.50C443.67 194.73 444.30 194.10 445.07 194.10H448.29C449.06 194.10 449.69 194.73 449.69 195.50V198.72C449.69 198.90 449.66 199.09 449.59 199.26C449.52 199.43 449.41 199.58 449.28 199.71C449.15 199.84 449.00 199.95 448.83 200.02C448.66 200.09 448.48 200.12 448.29 200.12ZM437.14 200.12H433.92C433.55 200.12 433.20 199.97 432.93 199.71C432.67 199.45 432.52 199.09 432.52 198.72V195.50C432.52 194.73 433.15 194.10 433.92 194.10H437.14C437.92 194.10 438.55 194.73 438.55 195.50V198.72C438.55 199.09 438.40 199.45 438.13 199.71C437.87 199.97 437.51 200.12 437.14 200.12Z" fill="#E1E4E5"/><defs><linearGradient id="paint0_linear_280_1220" x1="157.20" y1="528.83" x2="506.57" y2="-320.62" gradientUnits="userSpaceOnUse"><stop stop-color="white"/><stop offset="1" stop-color="#EEEEEE"/></linearGradient><linearGradient id="paint1_linear_280_1220" x1="345.80" y1="499.70" x2="575.68" y2="52.43" gradientUnits="userSpaceOnUse"><stop stop-color="white"/><stop offset="1" stop-color="#EEEEEE"/></linearGradient></defs></svg>