<svg width="652" height="421" viewBox="0 0 652 421" fill="none" xmlns="http://www.w3.org/2000/svg">
<path d="M40.5899 177.772C24.0459 249.631 140.236 421.788 324.537 397.573C410.254 386.308 410.693 342.962 482.17 298.156C524.774 271.452 582.072 255.618 605.162 210.051C625.103 170.722 625.061 124.718 608.054 91.8434C569.805 17.9104 477.442 -44.2166 360.893 41.5414C244.344 127.298 83.2819 -7.55257 40.5899 177.772Z" fill="url(#paint0_linear_271_1155)"/>
<path d="M439.338 377.402C485.021 339.821 532.288 299.533 583.36 287.136C636.042 274.337 640.369 292.085 636.957 317.543C633.545 343.001 603.746 397.502 532.145 413.869C460.525 430.241 396.59 412.577 439.338 377.402Z" fill="url(#paint1_linear_271_1155)"/>
<path fill-rule="evenodd" clip-rule="evenodd" d="M552.988 142.438V179.885H553C547.575 178.79 541.956 179.155 536.718 180.943C531.927 182.581 527.622 185.392 524.195 189.119C520.768 192.846 518.328 197.372 517.098 202.283C515.938 206.822 515.83 211.565 516.782 216.151C517.735 220.737 519.722 225.046 522.593 228.747C525.464 232.448 529.143 235.444 533.348 237.507C537.554 239.57 542.175 240.645 546.859 240.649C548.921 240.646 550.978 240.439 553 240.033V277.48C553 280.704 552.365 283.897 551.131 286.875C549.897 289.854 548.089 292.56 545.809 294.84C543.529 297.119 540.823 298.928 537.844 300.161C534.866 301.395 531.673 302.03 528.449 302.029H491V302.041C492.095 296.616 491.73 290.998 489.942 285.76C488.304 280.969 485.493 276.664 481.765 273.238C478.038 269.811 473.512 267.371 468.6 266.141C464.062 264.981 459.319 264.874 454.733 265.826C450.146 266.778 445.838 268.766 442.137 271.637C438.436 274.507 435.44 278.186 433.376 282.391C431.313 286.596 430.238 291.217 430.233 295.901C430.236 297.963 430.442 300.019 430.849 302.041L393.412 302.029C379.856 302.032 368.864 291.046 368.86 277.491V240.044C366.839 240.451 364.782 240.658 362.72 240.661C358.036 240.656 353.415 239.581 349.21 237.517C345.005 235.454 341.327 232.458 338.456 228.757C335.585 225.056 333.597 220.749 332.644 216.163C331.692 211.577 331.799 206.834 332.958 202.295C334.189 197.384 336.628 192.858 340.055 189.131C343.482 185.404 347.787 182.593 352.578 180.955C357.816 179.167 363.435 178.802 368.86 179.896H368.849V142.449C368.849 139.225 369.484 136.033 370.717 133.054C371.951 130.075 373.76 127.369 376.039 125.089C378.319 122.809 381.026 121.001 384.005 119.767C386.983 118.534 390.176 117.899 393.4 117.899H430.849C430.442 115.878 430.236 113.821 430.233 111.759C430.238 107.075 431.313 102.454 433.376 98.2486C435.439 94.0431 438.435 90.3645 442.136 87.4936C445.838 84.6227 450.146 82.6353 454.732 81.6831C459.319 80.7309 464.062 80.839 468.6 81.9993C473.51 83.2331 478.034 85.6739 481.761 89.1001C485.488 92.5263 488.3 96.8293 489.942 101.618C491.73 106.856 492.095 112.474 491 117.899H528.449C534.96 117.899 541.205 120.486 545.81 125.089C550.414 129.694 553 135.938 553 142.449M139.893 164.512H177.46V164.5C176.362 169.943 176.728 175.58 178.521 180.834C180.164 185.641 182.984 189.96 186.723 193.397C190.463 196.835 195.003 199.283 199.93 200.517C204.483 201.681 209.241 201.789 213.842 200.833C218.443 199.878 222.764 197.884 226.477 195.003C230.19 192.123 233.196 188.433 235.265 184.214C237.335 179.995 238.413 175.359 238.418 170.66C238.414 168.592 238.207 166.528 237.799 164.5H275.366C278.6 164.5 281.803 165.137 284.791 166.375C287.78 167.613 290.495 169.427 292.782 171.714C295.069 174.001 296.883 176.717 298.12 179.705C299.358 182.693 299.994 185.896 299.994 189.13V226.698H300.006C294.563 225.6 288.927 225.966 283.672 227.76C278.866 229.404 274.547 232.223 271.11 235.963C267.672 239.702 265.225 244.242 263.991 249.169C262.828 253.722 262.719 258.48 263.675 263.081C264.63 267.682 266.624 272.004 269.504 275.717C272.384 279.43 276.074 282.436 280.293 284.506C284.511 286.575 289.147 287.654 293.846 287.659C295.915 287.656 297.978 287.449 300.006 287.041L299.994 324.597C299.996 338.196 288.976 349.223 275.378 349.227H237.811C238.219 351.255 238.426 353.319 238.429 355.387C238.424 360.086 237.345 364.722 235.276 368.941C233.206 373.159 230.201 376.85 226.488 379.73C222.775 382.61 218.453 384.604 213.853 385.56C209.252 386.515 204.494 386.408 199.941 385.244C195.014 384.01 190.474 381.562 186.735 378.124C182.996 374.687 180.176 370.368 178.533 365.561C176.739 360.307 176.373 354.67 177.471 349.227V349.239H139.905C136.671 349.24 133.468 348.603 130.48 347.365C127.491 346.127 124.776 344.313 122.489 342.026C120.202 339.739 118.388 337.023 117.151 334.035C115.913 331.047 115.277 327.844 115.277 324.609V287.041C113.249 287.449 111.186 287.656 109.117 287.659C104.418 287.654 99.782 286.576 95.5632 284.506C91.3444 282.437 87.6541 279.431 84.774 275.718C81.8939 272.005 79.9002 267.683 78.9449 263.082C77.9897 258.48 78.0981 253.722 79.2621 249.169C80.4997 244.244 82.9483 239.705 86.3855 235.967C89.8228 232.228 94.1397 229.407 98.9441 227.76C104.198 225.966 109.835 225.6 115.277 226.698V189.13C115.277 185.896 115.913 182.693 117.151 179.705C118.388 176.716 120.202 174.001 122.489 171.714C124.776 169.427 127.491 167.612 130.48 166.375C133.468 165.137 136.671 164.5 139.905 164.5" fill="#2DA44A"/>
<path d="M1.65909 391.389C0.271088 389.413 -0.710911 329.309 0.656089 326.907C2.03009 324.512 62.1981 307.035 62.1981 307.035C62.1981 307.035 82.5671 273.845 101.769 255.26C109.34 247.923 120.407 241.762 123.121 245.885C124.804 248.439 122.132 254.978 118.353 261.861C118.345 261.883 118.333 261.904 118.319 261.923C113.057 271.497 105.685 281.691 104.991 282.648C104.972 282.67 104.953 282.693 104.936 282.717C104.936 282.717 154.847 270.038 162.37 268.675C169.892 267.299 179.709 265.11 181.269 270.19C182.705 274.856 169.995 280.322 169.24 280.645C170.057 280.418 187.328 275.648 189.891 282.153C191.794 286.991 173.932 296.146 173.403 296.408C173.849 296.291 182.361 294.047 183.261 298.094C184.738 304.75 166.21 312.418 165.454 312.735C165.873 312.631 172.757 311.007 173.252 314.731C174.475 323.954 110.741 349.518 91.2651 356.711C71.7681 363.897 3.05409 393.364 1.65909 391.389ZM650.341 61.1352C651.729 63.0982 652.711 122.824 651.344 125.212C649.97 127.592 589.813 144.958 589.813 144.958C589.813 144.958 569.447 177.94 550.248 196.408C542.679 203.7 531.613 209.821 528.9 205.724C527.217 203.187 529.889 196.689 533.667 189.849C533.674 189.828 533.688 189.808 533.701 189.787C538.963 180.273 546.333 170.143 547.027 169.192C547.068 169.144 547.082 169.124 547.082 169.124C547.082 169.124 497.18 181.723 489.658 183.077C482.137 184.445 472.321 186.62 470.762 181.572C469.327 176.935 482.034 171.504 482.79 171.183C481.972 171.408 464.704 176.148 462.142 169.685C460.239 164.876 478.098 155.779 478.627 155.519C478.181 155.636 469.67 157.865 468.77 153.843C467.293 147.229 485.819 139.61 486.574 139.295C486.155 139.398 479.273 141.012 478.778 137.311C477.556 128.146 541.278 102.742 560.751 95.5952C580.245 88.4542 648.947 59.1722 650.341 61.1352Z" fill="#EEB88F"/>
<defs>
<linearGradient id="paint0_linear_271_1155" x1="134.53" y1="642.068" x2="607.85" y2="-508.747" gradientUnits="userSpaceOnUse">
<stop offset="1" stop-color="#EFEFEF"/>
</linearGradient>
<linearGradient id="paint1_linear_271_1155" x1="460.424" y1="503.092" x2="615.572" y2="101.565" gradientUnits="userSpaceOnUse">
<stop offset="1" stop-color="#EFEFEF"/>
</linearGradient>
</defs>
</svg>
