<svg xmlns="http://www.w3.org/2000/svg" width="711" height="431" viewBox="0 0 711 431" fill="none"><path d="M556.68 270.89C559.79 328.2 447.75 444.74 309.64 401.60C245.40 381.54 250.84 348.24 202.00 304.35C172.89 278.19 131.06 258.42 119.42 220.39C109.38 187.58 115.54 152.30 132.96 129.36C172.15 77.76 251.26 42.43 329.21 123.72C407.16 205.02 548.64 123.08 556.68 270.89Z" fill="url(#paint0_linear_280_1319)"/><path d="M508.06 124.08C497.80 142.41 475.31 144.92 439.28 141.44C412.19 138.82 387.48 136.79 360.38 122.01C341.41 111.68 326.40 97.70 315.44 84.12C303.57 69.41 287.00 52.62 295.12 35.95C306.29 13.04 370.86 -6.26 433.55 25.29C502.43 59.97 518.11 106.17 508.06 124.08Z" fill="url(#paint1_linear_280_1319)"/><path fill-rule="evenodd" clip-rule="evenodd" d="M259.36 353.09C255.94 354.93 252.07 355.76 248.20 355.51C244.33 355.25 240.61 353.92 237.47 351.65C234.32 349.38 231.87 346.28 230.40 342.69C228.93 339.10 228.5 335.17 229.16 331.35L244.13 244.67L180.70 183.25C177.95 180.55 176.01 177.13 175.1 173.39C174.19 169.64 174.34 165.72 175.54 162.05C176.74 158.39 178.93 155.13 181.88 152.65C184.83 150.16 188.41 148.55 192.23 148.00L279.93 135.35L319.10 56.41C320.83 52.95 323.50 50.03 326.80 48.00C330.09 45.96 333.89 44.88 337.77 44.88C341.65 44.88 345.45 45.96 348.74 48.00C352.04 50.03 354.71 52.95 356.44 56.41L395.62 135.35L483.31 148.00C487.13 148.55 490.71 150.16 493.66 152.65C496.61 155.13 498.81 158.39 500.00 162.05C501.20 165.71 501.36 169.64 500.44 173.39C499.53 177.13 497.59 180.55 494.84 183.25L431.37 244.63L446.35 331.31C447.01 335.14 446.58 339.07 445.12 342.67C443.65 346.26 441.20 349.37 438.06 351.64C434.91 353.91 431.19 355.25 427.31 355.51C423.44 355.76 419.57 354.93 416.15 353.09L337.74 312.21L259.36 353.09ZM54.92 354.36C53.23 355.27 51.31 355.68 49.40 355.56C47.48 355.43 45.64 354.77 44.09 353.65C42.53 352.53 41.32 350.99 40.59 349.22C39.86 347.44 39.65 345.50 39.97 343.61L47.39 300.72L16.00 270.33C14.64 269.00 13.68 267.31 13.23 265.45C12.78 263.60 12.85 261.66 13.44 259.85C14.04 258.03 15.12 256.42 16.58 255.19C18.04 253.96 19.82 253.17 21.70 252.89L65.09 246.63L84.48 207.58C85.34 205.87 86.65 204.43 88.29 203.42C89.92 202.41 91.80 201.88 93.72 201.88C95.63 201.88 97.51 202.41 99.14 203.42C100.78 204.43 102.09 205.87 102.95 207.58L122.34 246.63L165.73 252.89C167.62 253.17 169.39 253.96 170.85 255.19C172.31 256.42 173.39 258.03 173.99 259.85C174.58 261.66 174.65 263.60 174.20 265.45C173.75 267.31 172.79 269.00 171.43 270.33L140.03 300.70L147.44 343.59C147.77 345.48 147.56 347.43 146.83 349.21C146.11 350.99 144.90 352.52 143.34 353.65C141.78 354.77 139.94 355.43 138.02 355.56C136.10 355.69 134.19 355.27 132.50 354.36L93.70 334.14L54.92 354.36ZM542.96 354.36C541.26 355.27 539.35 355.68 537.44 355.56C535.52 355.43 533.68 354.77 532.12 353.65C530.57 352.53 529.36 350.99 528.63 349.22C527.90 347.44 527.69 345.50 528.01 343.61L535.42 300.72L504.04 270.33C502.68 269.00 501.72 267.31 501.27 265.45C500.81 263.60 500.89 261.66 501.48 259.85C502.07 258.03 503.16 256.42 504.62 255.19C506.08 253.96 507.85 253.17 509.74 252.89L553.13 246.63L572.51 207.58C573.37 205.87 574.69 204.43 576.32 203.42C577.96 202.41 579.84 201.88 581.75 201.88C583.67 201.88 585.55 202.41 587.18 203.42C588.81 204.43 590.13 205.87 590.99 207.58L610.38 246.63L653.77 252.89C655.65 253.17 657.43 253.96 658.89 255.19C660.34 256.42 661.43 258.03 662.02 259.85C662.62 261.66 662.69 263.60 662.24 265.45C661.79 267.31 660.83 269.00 659.47 270.33L628.07 300.70L635.48 343.59C635.80 345.48 635.59 347.43 634.87 349.20C634.14 350.98 632.93 352.52 631.37 353.65C629.82 354.77 627.97 355.43 626.06 355.56C624.14 355.69 622.23 355.27 620.53 354.36L581.74 334.14L542.96 354.36Z" fill="#1DA1F2" stroke="#1DA1F2" stroke-width="25.87" stroke-linecap="round" stroke-linejoin="round"/><path d="M366.50 194.45L330.56 230.40L308.97 208.82" stroke="white" stroke-width="25.87" stroke-linecap="round" stroke-linejoin="round"/><path d="M607.37 189.80C586.75 194.68 564.95 177.20 564.95 177.20C564.95 177.20 576.58 151.8 597.21 146.93C617.83 142.04 639.63 159.52 639.63 159.52C639.63 159.52 627.99 184.91 607.37 189.80Z" fill="url(#paint2_linear_280_1319)"/><path d="M679.98 336.28C692.17 344.68 710.81 338.81 710.81 338.81C710.81 338.81 709.65 319.31 697.45 310.92C685.25 302.52 666.63 308.38 666.63 308.38C666.63 308.38 667.78 327.88 679.98 336.28Z" fill="url(#paint3_linear_280_1319)"/><path d="M178.26 398.72C187.68 408.30 205.27 406.28 205.27 406.28C205.27 406.28 207.60 388.73 198.18 379.16C188.77 369.58 171.18 371.60 171.18 371.60C171.18 371.60 168.85 389.15 178.26 398.72Z" fill="url(#paint4_linear_280_1319)"/><path d="M627.47 254.98C619.15 254.98 612.41 261.43 612.41 269.39C612.41 277.34 619.15 283.79 627.47 283.79C635.79 283.79 642.53 277.34 642.53 269.39C642.53 261.43 635.79 254.98 627.47 254.98Z" fill="#1DA1F2"/><path d="M338.4 391.55C327.19 391.55 318.1 400.35 318.1 411.20C318.1 422.05 327.19 430.84 338.4 430.84C349.61 430.84 358.7 422.05 358.7 411.20C358.7 400.35 349.61 391.55 338.4 391.55Z" fill="#1DA1F2"/><path d="M108.42 140.92C100.25 140.92 93.64 134.31 93.64 126.14C93.64 117.98 100.25 111.36 108.42 111.36C116.58 111.36 123.20 117.98 123.20 126.14C123.20 134.31 116.58 140.92 108.42 140.92Z" fill="#1DA1F2"/><path d="M431.54 88.38C423.94 88.38 417.78 82.22 417.78 74.63C417.78 67.03 423.94 60.87 431.54 60.87C439.13 60.87 445.29 67.03 445.29 74.63C445.29 82.22 439.13 88.38 431.54 88.38Z" fill="#1DA1F2"/><path d="M597.29 411.64C590.46 411.64 584.92 406.10 584.92 399.27C584.92 392.44 590.46 386.90 597.29 386.90C604.12 386.90 609.66 392.44 609.66 399.27C609.66 406.10 604.12 411.64 597.29 411.64Z" fill="#E1E4E5"/><path d="M50.95 350.69C46.53 350.69 42.95 347.11 42.95 342.69C42.95 338.28 46.53 334.70 50.95 334.70C55.36 334.70 58.94 338.28 58.94 342.69C58.94 347.11 55.36 350.69 50.95 350.69Z" fill="white"/><path d="M266.17 429.06C262.63 429.06 259.76 426.19 259.76 422.65C259.76 419.11 262.63 416.24 266.17 416.24C269.71 416.24 272.58 419.11 272.58 422.65C272.58 426.19 269.71 429.06 266.17 429.06Z" fill="#E1E4E5"/><path d="M532.38 88.55C526.98 88.55 522.60 84.17 522.60 78.77C522.60 73.36 526.98 68.98 532.38 68.98C537.79 68.98 542.17 73.36 542.17 78.77C542.17 84.17 537.79 88.55 532.38 88.55Z" fill="#E1E4E5"/><path d="M114.46 238.42C115.38 241.84 113.35 245.35 109.94 246.26C106.53 247.18 103.02 245.15 102.10 241.74C101.19 238.32 103.21 234.81 106.63 233.90C110.04 232.98 113.55 235.01 114.46 238.42Z" fill="white"/><path d="M242.47 100.05C237.77 100.05 233.96 96.24 233.96 91.54C233.96 86.84 237.77 83.03 242.47 83.03C247.17 83.03 250.98 86.84 250.98 91.54C250.98 96.24 247.17 100.05 242.47 100.05Z" fill="#E1E4E5"/><path d="M523.23 261.79C519.61 261.79 516.68 259.45 516.68 256.55C516.68 253.66 519.61 251.31 523.23 251.31C526.85 251.31 529.78 253.66 529.78 256.55C529.78 259.45 526.85 261.79 523.23 261.79Z" fill="white"/><path d="M629.00 351.89C623.71 354.47 617.76 353.18 615.73 349C613.69 344.82 616.33 339.35 621.62 336.76C626.91 334.18 632.85 335.48 634.89 339.65C636.92 343.83 634.29 349.31 629.00 351.89Z" fill="white"/><path d="M402.47 11.97C404.24 18.58 400.32 25.38 393.70 27.15C387.09 28.92 380.30 25.00 378.53 18.39C376.75 11.78 380.68 4.98 387.29 3.21C393.90 1.44 400.70 5.36 402.47 11.97Z" fill="#E1E4E5"/><path d="M676.33 194.52H676.50C677.51 208.89 688.20 209.11 688.20 209.11C688.20 209.11 676.41 209.34 676.41 225.95C676.41 209.34 664.63 209.11 664.63 209.11C664.63 209.11 675.31 208.89 676.33 194.52ZM186.79 14.59H187.09C188.83 39.74 207.24 40.13 207.24 40.13C207.24 40.13 186.94 40.53 186.94 69.59C186.94 40.53 166.64 40.13 166.64 40.13C166.64 40.13 185.04 39.74 186.79 14.59Z" fill="#E1E4E5"/><defs><linearGradient id="paint0_linear_280_1319" x1="422.76" y1="614.42" x2="213.17" y2="-331.19" gradientUnits="userSpaceOnUse"><stop stop-color="white"/><stop offset="1" stop-color="#EEEEEE"/></linearGradient><linearGradient id="paint1_linear_280_1319" x1="438.89" y1="242.84" x2="347.37" y2="-168.41" gradientUnits="userSpaceOnUse"><stop stop-color="white"/><stop offset="1" stop-color="#EEEEEE"/></linearGradient><linearGradient id="paint2_linear_280_1319" x1="529.73" y1="201.94" x2="710.23" y2="116.67" gradientUnits="userSpaceOnUse"><stop stop-color="white"/><stop offset="1" stop-color="#EEEEEE"/></linearGradient><linearGradient id="paint3_linear_280_1319" x1="727.49" y1="363.84" x2="631.48" y2="262.60" gradientUnits="userSpaceOnUse"><stop stop-color="white"/><stop offset="1" stop-color="#EEEEEE"/></linearGradient><linearGradient id="paint4_linear_280_1319" x1="215.81" y1="431.44" x2="147.78" y2="324.79" gradientUnits="userSpaceOnUse"><stop stop-color="white"/><stop offset="1" stop-color="#EEEEEE"/></linearGradient></defs></svg>