<svg xmlns="http://www.w3.org/2000/svg" width="689" height="402" viewBox="0 0 689 402" fill="none"><path d="M215.56 115.46C227.29 115.46 236.79 105.96 236.79 94.23C236.79 82.51 227.29 73 215.56 73H145.88C134.16 73 124.65 82.51 124.65 94.23C124.65 105.96 134.16 115.46 145.88 115.46H215.56Z" fill="#E1E4E5"/><path d="M215.04 111.08C224.36 111.08 231.92 103.53 231.92 94.21C231.92 84.89 224.36 77.33 215.04 77.33C205.72 77.33 198.17 84.89 198.17 94.21C198.17 103.53 205.72 111.08 215.04 111.08Z" fill="white"/><path d="M389.79 354.46C401.52 354.46 411.02 344.96 411.02 333.23C411.02 321.50 401.52 312 389.79 312H320.11C308.39 312 298.88 321.50 298.88 333.23C298.88 344.96 308.39 354.46 320.11 354.46H389.79Z" fill="#E1E4E5"/><path d="M389.27 350.08C398.59 350.08 406.15 342.53 406.15 333.21C406.15 323.89 398.59 316.33 389.27 316.33C379.95 316.33 372.40 323.89 372.40 333.21C372.40 342.53 379.95 350.08 389.27 350.08Z" fill="white"/><path d="M197.83 283.00C197.83 238.45 161.71 202.34 117.16 202.34C72.61 202.34 36.49 238.45 36.49 283.00C36.49 327.56 72.61 363.67 117.16 363.67C161.71 363.67 197.83 327.56 197.83 283.00Z" fill="#1DA1F2"/><path fill-rule="evenodd" clip-rule="evenodd" d="M153.83 316.84V322.24C153.83 325.21 151.44 327.63 148.50 327.63H84.63C81.69 327.63 79.30 325.21 79.30 322.24V316.75C79.30 300.43 97.71 289.83 116.56 289.83C135.42 289.83 153.83 300.44 153.83 316.75M129.93 242.44C137.31 249.82 137.31 261.79 129.93 269.17C122.54 276.55 110.58 276.55 103.19 269.17C95.81 261.79 95.81 249.82 103.19 242.44C110.58 235.06 122.54 235.06 129.93 242.44Z" fill="white"/><path d="M640.95 309.13C640.95 264.58 604.83 228.47 560.28 228.47C515.73 228.47 479.61 264.58 479.61 309.13C479.61 353.68 515.73 389.8 560.28 389.8C604.83 389.8 640.95 353.68 640.95 309.13Z" fill="#1DA1F2"/><path fill-rule="evenodd" clip-rule="evenodd" d="M596.95 342.97V348.37C596.95 351.34 594.56 353.76 591.62 353.76H527.75C524.81 353.76 522.42 351.34 522.42 348.37V342.88C522.42 326.56 540.83 315.96 559.68 315.96C578.54 315.96 596.95 326.57 596.95 342.88M573.04 268.57C580.42 275.95 580.42 287.92 573.04 295.3C565.66 302.68 553.70 302.68 546.32 295.3C538.93 287.92 538.93 275.95 546.32 268.57C553.70 261.19 565.66 261.19 573.04 268.57Z" fill="white"/><path d="M425.99 172.67C425.99 128.12 389.87 92 345.32 92C300.77 92 264.65 128.12 264.65 172.67C264.65 217.22 300.77 253.34 345.32 253.34C389.87 253.34 425.99 217.22 425.99 172.67Z" fill="#1DA1F2"/><path fill-rule="evenodd" clip-rule="evenodd" d="M381.99 206.51V211.9C381.99 214.88 379.6 217.29 376.66 217.29H312.79C309.85 217.29 307.46 214.88 307.46 211.9V206.42C307.46 190.10 325.87 179.49 344.72 179.49C363.58 179.49 381.99 190.10 381.99 206.42M358.08 132.11C365.46 139.49 365.46 151.46 358.08 158.84C350.70 166.22 338.74 166.22 331.35 158.84C323.97 151.46 323.97 139.49 331.35 132.11C338.74 124.72 350.70 124.72 358.08 132.11Z" fill="white"/><path d="M154.36 143.54H154.50C155.38 156.10 164.58 156.30 164.58 156.30C164.58 156.30 154.43 156.50 154.43 171.01C154.43 156.50 144.28 156.30 144.28 156.30C144.28 156.30 153.48 156.10 154.36 143.54ZM458.12 232.82H458.26C459.14 245.38 468.34 245.57 468.34 245.57C468.34 245.57 458.19 245.78 458.19 260.29C458.19 245.78 448.04 245.57 448.04 245.57C448.04 245.57 457.24 245.38 458.12 232.82ZM239.28 262.22H239.43C240.30 274.78 249.50 274.97 249.50 274.97C249.50 274.97 239.35 275.17 239.35 289.68C239.35 275.17 229.20 274.97 229.20 274.97C229.20 274.97 238.41 274.78 239.28 262.22ZM266.73 49.43H266.88C267.75 61.98 276.96 62.18 276.96 62.18C276.96 62.18 266.81 62.38 266.81 76.89C266.81 62.38 256.65 62.18 256.65 62.18C256.65 62.18 265.86 61.98 266.73 49.43ZM489.65 103.42H489.72C490.14 109.48 494.58 109.57 494.58 109.57C494.58 109.57 489.68 109.67 489.68 116.67C489.68 109.67 484.79 109.57 484.79 109.57C484.79 109.57 489.23 109.48 489.65 103.42ZM20.67 219.75H20.74C21.16 225.82 25.61 225.91 25.61 225.91C25.61 225.91 20.71 226.01 20.71 233.01C20.71 226.01 15.81 225.91 15.81 225.91C15.81 225.91 20.25 225.82 20.67 219.75ZM10.87 341.69H10.94C11.37 347.76 15.81 347.85 15.81 347.85C15.81 347.85 10.91 347.95 10.91 354.95C10.91 347.95 6.01 347.85 6.01 347.85C6.01 347.85 10.45 347.76 10.87 341.69ZM668.48 269.84H668.55C668.97 275.9 673.41 275.99 673.41 275.99C673.41 275.99 668.51 276.09 668.51 283.10C668.51 276.09 663.61 275.99 663.61 275.99C663.61 275.99 668.05 275.9 668.48 269.84Z" fill="#E1E4E5"/><path fill-rule="evenodd" clip-rule="evenodd" d="M630.34 208.24H633.94C634.81 208.24 635.51 208.94 635.51 209.81V213.40C635.51 214.27 634.80 214.97 633.94 214.97H630.34C629.48 214.97 628.77 214.26 628.77 213.40V209.81C628.76 208.94 629.47 208.24 630.34 208.24ZM642.82 208.24H646.41C647.27 208.24 647.98 208.94 647.98 209.81V213.40C647.98 214.27 647.27 214.97 646.41 214.97H642.82C641.95 214.97 641.25 214.26 641.25 213.40V209.81C641.25 208.94 641.95 208.24 642.82 208.24ZM655.30 208.24H658.89C659.75 208.24 660.46 208.94 660.46 209.81V213.40C660.46 214.27 659.75 214.97 658.89 214.97H655.30C654.88 214.97 654.48 214.81 654.19 214.51C653.89 214.22 653.73 213.82 653.73 213.40V209.81C653.73 209.60 653.76 209.39 653.84 209.20C653.92 209.01 654.04 208.84 654.18 208.69C654.33 208.55 654.50 208.43 654.70 208.35C654.89 208.28 655.09 208.24 655.30 208.24ZM667.77 208.24H671.37C672.23 208.24 672.93 208.94 672.93 209.81V213.40C672.93 214.27 672.23 214.97 671.37 214.97H667.77C666.90 214.97 666.19 214.26 666.19 213.40V209.81C666.20 209.39 666.36 208.99 666.66 208.70C666.95 208.40 667.35 208.24 667.77 208.24ZM680.24 208.24H683.84C684.71 208.24 685.42 208.94 685.42 209.81V213.40C685.42 214.27 684.71 214.97 683.84 214.97H680.24C679.38 214.97 678.67 214.26 678.67 213.40V209.81C678.67 208.94 679.38 208.24 680.24 208.24ZM643.27 221.84H646.87C647.73 221.84 648.44 222.54 648.44 223.41V227.01C648.44 227.87 647.73 228.58 646.87 228.58H643.27C642.40 228.58 641.70 227.87 641.70 227.01V223.41C641.70 223.21 641.74 223.00 641.82 222.81C641.90 222.62 642.01 222.44 642.16 222.30C642.30 222.15 642.48 222.03 642.67 221.96C642.86 221.88 643.07 221.84 643.27 221.84ZM655.75 221.84H659.34C660.21 221.84 660.91 222.54 660.91 223.41V227.01C660.91 227.87 660.21 228.58 659.34 228.58H655.75C654.88 228.58 654.17 227.87 654.17 227.01V223.41C654.17 222.54 654.88 221.84 655.75 221.84ZM668.22 221.84H671.82C672.68 221.84 673.39 222.54 673.39 223.41V227.01C673.39 227.87 672.68 228.58 671.82 228.58H668.22C667.36 228.58 666.65 227.87 666.65 227.01V223.41C666.65 222.54 667.36 221.84 668.22 221.84ZM655.30 193.62H658.89C659.75 193.62 660.46 194.33 660.46 195.19V198.79C660.46 199.66 659.75 200.36 658.89 200.36H655.30C654.88 200.36 654.48 200.19 654.19 199.9C653.89 199.61 653.73 199.21 653.73 198.79V195.19C653.73 194.99 653.76 194.78 653.84 194.59C653.92 194.40 654.04 194.23 654.18 194.08C654.33 193.94 654.50 193.82 654.70 193.74C654.88 193.66 655.09 193.62 655.30 193.62ZM667.77 193.62H671.37C672.23 193.62 672.93 194.33 672.93 195.19V198.79C672.93 199.66 672.23 200.36 671.37 200.36H667.77C666.90 200.36 666.19 199.65 666.19 198.79V195.19C666.20 194.78 666.36 194.38 666.66 194.09C666.95 193.79 667.35 193.63 667.77 193.62ZM213.35 350.86H216.95C217.82 350.86 218.52 351.57 218.52 352.43V356.03C218.52 356.90 217.81 357.60 216.95 357.60H213.35C212.49 357.60 211.78 356.89 211.78 356.03V352.43C211.78 352.23 211.82 352.02 211.90 351.83C211.98 351.64 212.10 351.47 212.24 351.32C212.39 351.17 212.56 351.06 212.75 350.98C212.94 350.90 213.15 350.86 213.35 350.86ZM225.82 350.86H229.42C230.28 350.86 230.99 351.57 230.99 352.43V356.03C230.99 356.90 230.28 357.60 229.42 357.60H225.82C224.96 357.60 224.25 356.89 224.25 356.03V352.43C224.25 351.57 224.96 350.86 225.82 350.86ZM238.31 350.86H241.90C242.76 350.86 243.47 351.57 243.47 352.43V356.03C243.47 356.90 242.76 357.60 241.90 357.60H238.31C237.44 357.60 236.74 356.89 236.74 356.03V352.43C236.73 351.57 237.44 350.86 238.31 350.86ZM250.78 350.86H254.38C255.24 350.86 255.94 351.57 255.94 352.43V356.03C255.94 356.90 255.24 357.60 254.38 357.60H250.78C249.91 357.60 249.2 356.89 249.2 356.03V352.43C249.21 352.01 249.37 351.62 249.67 351.32C249.96 351.03 250.36 350.86 250.78 350.86ZM263.25 350.86H266.85C267.72 350.86 268.43 351.57 268.43 352.43V356.03C268.43 356.90 267.72 357.60 266.85 357.60H263.25C262.39 357.60 261.68 356.89 261.68 356.03V352.43C261.68 351.57 262.39 350.86 263.25 350.86ZM226.28 364.46H229.88C230.74 364.46 231.45 365.17 231.45 366.03V369.64C231.45 370.50 230.74 371.21 229.88 371.21H226.28C225.41 371.21 224.71 370.50 224.71 369.64V366.04C224.70 365.17 225.41 364.46 226.28 364.46ZM238.75 364.46H242.35C243.21 364.46 243.92 365.17 243.92 366.03V369.64C243.92 370.50 243.21 371.21 242.35 371.21H238.75C237.89 371.21 237.18 370.50 237.18 369.64V366.04C237.18 365.17 237.88 364.46 238.75 364.46ZM251.23 364.46H254.82C255.69 364.46 256.40 365.17 256.40 366.03V369.64C256.40 370.50 255.69 371.21 254.82 371.21H251.23C250.37 371.21 249.66 370.50 249.66 369.64V366.04C249.66 365.17 250.37 364.46 251.23 364.46ZM238.31 336.25H241.90C242.76 336.25 243.47 336.96 243.47 337.82V341.42C243.47 342.29 242.76 342.99 241.90 342.99H238.31C237.44 342.99 236.74 342.28 236.74 341.42V337.82C236.74 337.62 236.78 337.41 236.85 337.22C236.93 337.03 237.05 336.86 237.19 336.71C237.34 336.56 237.51 336.45 237.70 336.37C237.89 336.29 238.10 336.25 238.31 336.25ZM250.78 336.25H254.38C255.24 336.25 255.94 336.96 255.94 337.82V341.42C255.94 342.29 255.24 342.99 254.38 342.99H250.78C249.91 342.99 249.2 342.28 249.2 341.42V337.82C249.20 337.40 249.37 337.01 249.67 336.71C249.96 336.42 250.36 336.25 250.78 336.25ZM436.27 51.61H439.87C440.74 51.61 441.44 52.32 441.44 53.18V56.78C441.44 57.65 440.73 58.35 439.87 58.35H436.27C435.41 58.35 434.70 57.64 434.70 56.78V53.18C434.69 52.32 435.40 51.61 436.27 51.61ZM448.74 51.61H452.34C453.20 51.61 453.91 52.32 453.91 53.18V56.78C453.91 57.65 453.20 58.35 452.34 58.35H448.74C448.33 58.35 447.93 58.18 447.63 57.89C447.34 57.59 447.18 57.19 447.17 56.78V53.18C447.17 52.32 447.88 51.61 448.74 51.61ZM461.22 51.61H464.82C465.68 51.61 466.39 52.32 466.39 53.18V56.78C466.39 57.65 465.68 58.35 464.82 58.35H461.22C460.36 58.35 459.65 57.64 459.65 56.78V53.18C459.65 52.32 460.35 51.61 461.22 51.61ZM473.70 51.61H477.29C478.16 51.61 478.86 52.32 478.86 53.18V56.78C478.86 57.65 478.16 58.35 477.29 58.35H473.70C472.83 58.35 472.12 57.64 472.12 56.78V53.18C472.12 52.76 472.29 52.37 472.59 52.07C472.88 51.78 473.28 51.61 473.70 51.61ZM486.17 51.61H489.77C490.64 51.61 491.34 52.32 491.34 53.18V56.78C491.34 57.65 490.64 58.35 489.77 58.35H486.17C485.31 58.35 484.60 57.64 484.60 56.78V53.18C484.60 52.32 485.31 51.61 486.17 51.61ZM449.20 65.21H452.80C453.66 65.21 454.37 65.92 454.37 66.78V70.39C454.37 71.25 453.66 71.96 452.80 71.96H449.20C448.33 71.96 447.63 71.25 447.63 70.39V66.79C447.62 65.92 448.33 65.21 449.20 65.21ZM461.67 65.21H465.27C466.13 65.21 466.84 65.92 466.84 66.78V70.39C466.84 71.25 466.13 71.96 465.27 71.96H461.67C460.81 71.96 460.10 71.25 460.10 70.39V66.79C460.10 65.92 460.80 65.21 461.67 65.21ZM474.15 65.21H477.74C478.61 65.21 479.32 65.92 479.32 66.78V70.39C479.32 71.25 478.61 71.96 477.74 71.96H474.15C473.28 71.96 472.58 71.25 472.58 70.39V66.79C472.58 65.92 473.28 65.21 474.15 65.21ZM461.22 37H464.82C465.68 37 466.39 37.71 466.39 38.57V42.17C466.39 43.04 465.68 43.74 464.82 43.74H461.22C460.36 43.74 459.65 43.03 459.65 42.17V38.57C459.65 37.71 460.35 37 461.22 37ZM473.70 37H477.29C478.16 37 478.86 37.71 478.86 38.57V42.17C478.86 43.04 478.16 43.74 477.29 43.74H473.70C472.83 43.74 472.12 43.03 472.12 42.17V38.57C472.12 38.15 472.29 37.76 472.59 37.46C472.88 37.17 473.28 37.00 473.70 37Z" fill="#E1E4E5"/><path d="M1.65 158.09C16.24 141.05 41.87 113.25 27.67 138.34C9.93 169.71 42.46 148.79 53.69 138.34C64.93 127.88 91.54 120.33 72.62 147.63C53.69 174.93 108.10 158.67 118.15 138.34" stroke="#E1E4E5" stroke-width="4.36"/><path fill-rule="evenodd" clip-rule="evenodd" d="M519.90 100.23C519.90 67.63 546.33 41.20 578.93 41.20H629.63C662.23 41.20 688.65 67.63 688.65 100.23C688.65 132.83 662.23 159.25 629.63 159.25H612.66L586.08 180.62C584.11 182.20 581.18 180.80 581.18 178.28V159.25H578.93C546.33 159.25 519.90 132.83 519.90 100.23Z" fill="#1DA1F2"/><path d="M604.80 78.81H641.39C643.34 78.81 644.91 80.38 644.91 82.33C644.91 84.27 643.34 85.84 641.39 85.84H604.80C602.86 85.84 601.29 84.27 601.29 82.33C601.29 80.38 602.86 78.81 604.80 78.81Z" fill="white"/><path d="M581.59 97.10H641.39C643.34 97.10 644.91 98.68 644.91 100.62C644.91 102.56 643.34 104.14 641.39 104.14H581.59C579.64 104.14 578.07 102.56 578.07 100.62C578.07 98.68 579.64 97.10 581.59 97.10Z" fill="white"/><path d="M556.96 115.39H641.39C643.34 115.39 644.91 116.97 644.91 118.91C644.91 120.86 643.34 122.43 641.39 122.43H556.96C555.02 122.43 553.44 120.86 553.44 118.91C553.44 116.97 555.02 115.39 556.96 115.39Z" fill="white"/><path d="M549.00 20.69C543.28 20.69 538.65 16.06 538.65 10.34C538.65 4.63 543.28 0 549.00 0C554.71 0 559.34 4.63 559.34 10.34C559.34 16.06 554.71 20.69 549.00 20.69Z" fill="#E1E4E5"/><path d="M385.65 59C383.44 59 381.65 57.21 381.65 55C381.65 52.79 383.44 51 385.65 51C387.86 51 389.65 52.79 389.65 55C389.65 57.21 387.86 59 385.65 59Z" fill="#E1E4E5"/><path d="M50.10 212.13C44.39 212.13 39.76 207.50 39.76 201.79C39.76 196.08 44.39 191.44 50.10 191.44C55.82 191.44 60.45 196.08 60.45 201.79C60.45 207.50 55.82 212.13 50.10 212.13Z" fill="#E1E4E5"/><path d="M447.50 354.76C441.78 354.76 437.15 350.13 437.15 344.42C437.15 338.70 441.78 334.07 447.50 334.07C453.21 334.07 457.84 338.70 457.84 344.42C457.84 350.13 453.21 354.76 447.50 354.76Z" fill="#E1E4E5"/><path d="M517.72 203.42C514.71 203.42 512.28 200.99 512.28 197.98C512.28 194.97 514.71 192.53 517.72 192.53C520.73 192.53 523.16 194.97 523.16 197.98C523.16 200.99 520.73 203.42 517.72 203.42Z" fill="#E1E4E5"/><path d="M92.02 401.57C89.01 401.57 86.58 399.14 86.58 396.13C86.58 393.13 89.01 390.69 92.02 390.69C95.03 390.69 97.46 393.13 97.46 396.13C97.46 399.14 95.03 401.57 92.02 401.57Z" fill="#E1E4E5"/></svg>